<?xml version="1.0" standalone="no"?>
<!DOCTYPE svg PUBLIC "-//W3C//DTD SVG 1.1//EN" "http://www.w3.org/Graphics/SVG/1.1/DTD/svg11.dtd" >
<svg xmlns="http://www.w3.org/2000/svg" xmlns:xlink="http://www.w3.org/1999/xlink" version="1.1">
<metadata>
Created by FontForge 20161003 at Tue Feb 19 08:40:08 2019
 By www-data
Copyright (c) 1987, 1990, 1992, 2001 Adobe Systems Incorporated.  All Rights Reserved.
</metadata>
<defs>
<font id="StoneSansStdSemibold" horiz-adv-x="574" >
  <font-face 
    font-family="StoneSansStdSemibold"
    font-weight="600"
    font-stretch="normal"
    units-per-em="1000"
    panose-1="2 11 7 2 3 5 3 2 2 4"
    ascent="735"
    descent="-265"
    x-height="500"
    cap-height="700"
    bbox="-179 -250 1405 950"
    underline-thickness="50"
    underline-position="-150"
    unicode-range="U+0020-FB02"
  />
<missing-glyph horiz-adv-x="500" 
d="M0 0v700h500v-700h-500zM250 395l170 255h-340zM280 350l170 -255v510zM80 50h340l-170 255zM50 605v-510l170 255z" />
    <glyph glyph-name="fi" unicode="fi" horiz-adv-x="625" 
d="M221 0h-133v432h-80v68h80v57q0 61 28.5 103.5t66 58.5t78.5 16q61 0 104 -22l-23 -66q-27 9 -57 9q-23 0 -43.5 -16.5t-20.5 -58.5v-81h120v-68h-120v-432zM424 500h133v-500h-133v500zM490 566q-34 0 -56.5 25.5t-22.5 58.5q0 30 22 53.5t55 23.5q34 0 58 -23.5
t24 -53.5q0 -34 -22.5 -59t-57.5 -25z" />
    <glyph glyph-name="fl" unicode="fl" horiz-adv-x="625" 
d="M221 0h-133v432h-80v68h80v57q0 61 28.5 103.5t66 58.5t78.5 16q61 0 104 -22l-23 -66q-27 9 -57 9q-23 0 -43.5 -16.5t-20.5 -58.5v-81h120v-68h-120v-432zM557 0h-133v735h133v-735z" />
    <glyph glyph-name=".notdef" horiz-adv-x="500" 
d="M0 0v700h500v-700h-500zM250 395l170 255h-340zM280 350l170 -255v510zM80 50h340l-170 255zM50 605v-510l170 255z" />
    <glyph glyph-name=".null" horiz-adv-x="0" 
 />
    <glyph glyph-name="nonmarkingreturn" horiz-adv-x="333" 
 />
    <glyph glyph-name="space" unicode=" " horiz-adv-x="287" 
 />
    <glyph glyph-name="exclam" unicode="!" horiz-adv-x="296" 
d="M190 201h-85l-28 198v336h141v-336zM73 63q0 31 22.5 53t53.5 22q29 0 51.5 -22.5t22.5 -52.5q0 -29 -22.5 -52t-50.5 -23q-32 0 -54.5 22t-22.5 53z" />
    <glyph glyph-name="quotedbl" unicode="&#x22;" horiz-adv-x="370" 
d="M147 654l-27 -204q0 -1 -0.5 -5t-0.5 -6.5t-1.5 -6.5t-3.5 -6.5t-5 -4.5t-8 -2t-8.5 2t-5.5 7t-2.5 7.5t-0.5 8.5l-1 6l-27 204q-13 81 45 81q56 0 46 -81zM314 654l-27 -204q0 -1 -0.5 -5t-0.5 -6.5t-1.5 -6.5t-3.5 -6.5t-5 -4.5t-8 -2t-8.5 2t-5.5 7t-2.5 7.5t-1.5 8.5
v6l-27 204q-13 81 45 81q56 0 46 -81z" />
    <glyph glyph-name="numbersign" unicode="#" 
d="M507 292v-78h-104l-29 -214h-66l28 214h-129l-31 -214h-67l31 214h-99v78h111l18 129h-102v78h113l29 201h66l-28 -201h128l28 201h67l-28 -201h89v-78h-100l-17 -129h92zM365 421h-128l-18 -129h129z" />
    <glyph glyph-name="dollar" unicode="$" 
d="M324 278v-189q63 29 63 85q0 18 -8 35.5t-16 27t-22 23.5t-17 18zM270 468v155q-36 -18 -46 -33q-11 -16 -11 -40q0 -46 57 -82zM270 709v30h54v-30q110 0 181 -68l-55 -62q-23 21 -58.5 34.5t-67.5 13.5v-200q102 -74 147.5 -127t45.5 -122q0 -70 -52 -122t-149 -65v-73
h-54v73q-100 -4 -205 75l54 77q53 -40 91 -52q32 -10 68 -11v242q-104 69 -141 113t-37 105q0 65 48.5 109t129.5 60z" />
    <glyph glyph-name="percent" unicode="%" horiz-adv-x="981" 
d="M222 341q39 0 61 40.5t22 119.5q0 71 -22.5 109.5t-60.5 38.5q-39 0 -61.5 -38.5t-22.5 -109.5q0 -79 22.5 -119.5t61.5 -40.5zM222 278q-86 0 -139.5 61.5t-53.5 162.5q0 51 19 97t64.5 79.5t109.5 33.5q93 0 142.5 -64t49.5 -145q0 -102 -53.5 -163.5t-138.5 -61.5z
M760 51q39 0 61 40.5t22 119.5q0 71 -22.5 109.5t-60.5 38.5q-39 0 -61.5 -38.5t-22.5 -109.5q0 -79 22.5 -119.5t61.5 -40.5zM760 -12q-86 0 -139.5 61.5t-53.5 162.5q0 51 19 97t64.5 79.5t109.5 33.5q93 0 142.5 -64t49.5 -145q0 -102 -53.5 -163.5t-138.5 -61.5zM319 0
h-79l418 700h78z" />
    <glyph glyph-name="ampersand" unicode="&#x26;" horiz-adv-x="778" 
d="M481 145l-207 189q-66 -44 -66 -126q0 -51 37 -89.5t95 -38.5q43 0 81 18t60 47zM346 426l200 -187q17 36 9.5 93t-36.5 98h-94l35 71h304l-35 -71h-103q26 -43 24.5 -119.5t-34.5 -135.5l143 -124l-104 -63l-106 97q-99 -97 -226 -97q-68 0 -120.5 22.5t-80.5 57t-42 70
t-14 68.5q0 66 39 118.5t99 78.5q-24 24 -37.5 39.5t-29 47.5t-15.5 64q0 65 53.5 111.5t135.5 46.5q81 0 151 -47l-42 -79q-48 32 -89 32q-34 0 -54.5 -18.5t-20.5 -45.5q0 -26 19.5 -53.5t70.5 -74.5z" />
    <glyph glyph-name="quotesingle" unicode="'" horiz-adv-x="204" 
d="M147 654l-27 -204q0 -1 -0.5 -5t-0.5 -6.5t-1.5 -6.5t-3.5 -6.5t-5 -4.5t-8 -2t-8.5 2t-5.5 7t-2.5 7.5t-0.5 8.5l-1 6l-27 204q-13 81 45 81q56 0 46 -81z" />
    <glyph glyph-name="parenleft" unicode="(" horiz-adv-x="407" 
d="M392 -162l-55 -54q-262 188 -262 493q0 142 63.5 259.5t182.5 198.5l51 -45q-69 -51 -124.5 -168.5t-55.5 -245.5q0 -127 54 -244t146 -194z" />
    <glyph glyph-name="parenright" unicode=")" horiz-adv-x="407" 
d="M15 681l55 54q262 -188 262 -493q0 -142 -63.5 -259.5t-182.5 -198.5l-51 45q69 51 124.5 168.5t55.5 245.5q0 127 -54 244t-146 194z" />
    <glyph glyph-name="asterisk" unicode="*" horiz-adv-x="426" 
d="M162 700h102l-19 -130l121 58l32 -94l-133 -25l95 -93l-82 -64l-65 119l-65 -119l-82 64l95 93l-133 25l32 94l121 -58z" />
    <glyph glyph-name="plus" unicode="+" 
d="M248 292v214h78v-214h213v-78h-213v-214h-78v214h-213v78h213z" />
    <glyph glyph-name="comma" unicode="," horiz-adv-x="287" 
d="M68 -170l-62 25l64 176q22 60 37 79t46 19q34 0 47.5 -28t-14.5 -81z" />
    <glyph glyph-name="hyphen" unicode="-" horiz-adv-x="333" 
d="M291 195h-249v86h249v-86z" />
    <glyph glyph-name="period" unicode="." horiz-adv-x="287" 
d="M68 63q0 31 22.5 53t53.5 22q29 0 51.5 -22.5t22.5 -52.5q0 -29 -22.5 -52t-50.5 -23q-32 0 -54.5 22t-22.5 53z" />
    <glyph glyph-name="slash" unicode="/" horiz-adv-x="463" 
d="M107 -108h-76l324 843h76z" />
    <glyph glyph-name="zero" unicode="0" 
d="M287 -12q-114 0 -185.5 102.5t-71.5 271.5q0 63 15.5 123t45 111.5t80.5 83.5t116 32q52 0 95.5 -21t73 -56t50 -80.5t29.5 -93.5t9 -97q0 -170 -71.5 -273t-185.5 -103zM287 82q52 0 82 71t30 209q0 123 -30 189.5t-82 66.5t-82 -66.5t-30 -189.5q0 -138 30 -209t82 -71
z" />
    <glyph glyph-name="one" unicode="1" 
d="M397 712v-712h-142v615l-137 -56l-24 77l191 76h112z" />
    <glyph glyph-name="two" unicode="2" 
d="M43 0v70l128 128q124 124 171 194t47 126q0 39 -27.5 69t-71.5 30q-68 0 -155 -71l-55 66q90 100 239 100q94 0 159 -49t65 -133q0 -60 -35 -119.5t-136 -164.5l-136 -142h312v-104h-505z" />
    <glyph glyph-name="three" unicode="3" 
d="M136 332v71q79 2 133 34.5t54 94.5q0 50 -29.5 72.5t-71.5 22.5q-73 0 -127 -38l-37 70q92 53 201 53q31 0 62 -6t67 -21.5t59 -49.5t24 -83q2 -63 -45.5 -108t-96.5 -61v-2q24 -4 49.5 -13.5t58 -29t53.5 -55.5t22 -84q1 -28 -11 -60.5t-39.5 -68.5t-83.5 -59.5
t-131 -22.5q-94 1 -195 37l37 80q52 -32 134 -32q57 0 96.5 34.5t39.5 94.5q0 38 -20.5 65.5t-55 41t-71 19t-76.5 4.5z" />
    <glyph glyph-name="four" unicode="4" 
d="M484 700v-429h85v-88h-85v-183h-138v183h-323v63l359 454h102zM148 271h198v256h-2z" />
    <glyph glyph-name="five" unicode="5" 
d="M29 54l48 88q89 -60 156 -60q69 0 106.5 39t37.5 91q0 75 -80.5 122.5t-206.5 47.5l79 318h330l-27 -97h-210l-33 -131q85 -14 145 -42t91 -64.5t44 -72.5t13 -77q0 -95 -80.5 -161.5t-200.5 -66.5q-117 0 -212 66z" />
    <glyph glyph-name="six" unicode="6" 
d="M493 712v-79q-102 -14 -184 -79t-110 -147q53 24 122 24q60 0 110 -21.5t83 -71.5t33 -121q-1 -88 -75.5 -158.5t-184.5 -70.5q-70 0 -123 23.5t-82.5 62t-44 81.5t-13.5 87q1 122 66.5 226.5t172 168t230.5 75.5zM169 214q-4 -69 32 -108.5t89 -39.5q49 0 80 44t31 108
q0 59 -29.5 99t-81.5 40q-58 0 -89.5 -36.5t-31.5 -106.5z" />
    <glyph glyph-name="seven" unicode="7" 
d="M549 700v-75l-348 -635l-128 29l331 584h-325v97h470z" />
    <glyph glyph-name="eight" unicode="8" 
d="M288 66q53 0 84 35.5t32 84.5q1 24 -11 45.5t-25.5 36t-38.5 29.5t-36.5 20.5t-32.5 14.5q-42 -25 -65.5 -57.5t-23.5 -86.5q0 -52 32 -87t85 -35zM285 -12q-117 0 -190.5 54.5t-73.5 137.5q0 70 42.5 121.5t98.5 83.5q-49 19 -80 58.5t-31 98.5q0 81 68.5 125.5
t175.5 44.5q99 0 161.5 -41.5t62.5 -124.5q0 -47 -43 -93t-88 -68q166 -81 166 -195q0 -91 -76.5 -146.5t-192.5 -55.5zM287 642q-45 0 -70.5 -27.5t-25.5 -68.5q0 -23 9 -42t28 -34t32 -23t36 -19q83 54 83 118q0 39 -23.5 67.5t-68.5 28.5z" />
    <glyph glyph-name="nine" unicode="9" 
d="M81 -12v79q102 14 184 79t110 147q-53 -24 -123 -24q-102 0 -164 61.5t-61 151.5q1 86 72 158t193 72t191 -70.5t67 -183.5q-1 -119 -66.5 -223.5t-172 -169.5t-230.5 -77zM405 486q4 70 -29 109t-87 39q-53 0 -85 -44t-32 -109q0 -58 30 -98t82 -40q57 0 89 36.5
t32 106.5z" />
    <glyph glyph-name="colon" unicode=":" horiz-adv-x="287" 
d="M68 63q0 31 22.5 53t53.5 22q29 0 51.5 -22.5t22.5 -52.5q0 -29 -22.5 -52t-50.5 -23q-32 0 -54.5 22t-22.5 53zM68 421q0 31 22.5 53t53.5 22q29 0 51.5 -22.5t22.5 -52.5q0 -29 -22.5 -52t-50.5 -23q-32 0 -54.5 22t-22.5 53z" />
    <glyph glyph-name="semicolon" unicode=";" horiz-adv-x="287" 
d="M67 -170l-62 25l64 176q22 60 37 79t46 19q34 0 47.5 -28t-14.5 -81zM65 421q0 31 22.5 53t53.5 22q29 0 51.5 -22.5t22.5 -52.5q0 -29 -22.5 -52t-50.5 -23q-32 0 -54.5 22t-22.5 53z" />
    <glyph glyph-name="less" unicode="&#x3c;" 
d="M542 67v-75l-509 234v54l509 234v-75l-402 -186z" />
    <glyph glyph-name="equal" unicode="=" 
d="M539 389v-78h-504v78h504zM539 195v-78h-504v78h504z" />
    <glyph glyph-name="greater" unicode="&#x3e;" 
d="M33 67l401 186l-401 186v75l509 -234v-54l-509 -234v75z" />
    <glyph glyph-name="question" unicode="?" horiz-adv-x="463" 
d="M273 211h-113q-3 34 8 68.5t21.5 52t38.5 58.5q47 71 63 106t16 70q0 39 -28.5 60.5t-65.5 21.5q-51 0 -116 -65l-55 59q76 93 205 93q92 0 152 -41.5t60 -119.5q0 -38 -19.5 -75t-58.5 -84.5t-46 -58.5q-19 -29 -27.5 -43t-19.5 -42.5t-15 -59.5zM137 63q0 31 22.5 53
t53.5 22q29 0 51.5 -22.5t22.5 -52.5q0 -29 -22.5 -52t-50.5 -23q-32 0 -54.5 22t-22.5 53z" />
    <glyph glyph-name="at" unicode="@" horiz-adv-x="833" 
d="M538 521h82l-63 -257q-6 -23 4.5 -41t38.5 -18q43 0 74 63t31 136q0 50 -16.5 90.5t-43.5 66t-62.5 43t-72 25t-73.5 7.5q-125 0 -212 -89t-87 -217q0 -117 79 -190.5t207 -73.5q104 0 189 36l34 -67q-122 -47 -233 -47q-175 0 -279.5 101t-104.5 244q0 111 56.5 200
t149 136t201.5 47q56 0 107.5 -11.5t99 -36.5t82.5 -61t55.5 -89.5t20.5 -118.5q0 -98 -58.5 -175.5t-158.5 -77.5q-53 0 -82 27.5t-30 50.5q-58 -67 -130 -67q-43 0 -74 36.5t-31 99.5q0 100 57.5 170.5t138.5 70.5q64 0 94 -55zM448 464q-38 0 -73.5 -47t-35.5 -112
q0 -36 14.5 -52.5t34.5 -16.5q33 0 68 41t40 116q2 30 -10.5 50.5t-37.5 20.5z" />
    <glyph glyph-name="A" unicode="A" horiz-adv-x="667" 
d="M286 700h117l263 -700h-158l-65 191h-248l-72 -191h-122zM232 277h190q-10 31 -28.5 86t-34 103t-30.5 96h-2q-22 -80 -95 -285z" />
    <glyph glyph-name="B" unicode="B" horiz-adv-x="626" 
d="M224 322v-236h72q61 0 99 31t38 88q0 59 -38 88t-100 29h-71zM315 0h-232v700h253q90 0 145.5 -39.5t55.5 -109.5q0 -74 -44.5 -115.5t-95.5 -55.5v-2q72 -3 128 -49.5t56 -121.5q0 -92 -72 -149.5t-194 -57.5zM224 614v-206h44q60 0 98 33.5t38 83.5q0 45 -29.5 67
t-77.5 22h-73z" />
    <glyph glyph-name="C" unicode="C" horiz-adv-x="671" 
d="M632 658l-44 -85q-74 39 -145 39q-109 0 -178.5 -71t-69.5 -189q0 -121 72.5 -192.5t179.5 -71.5q76 0 141 35l39 -87q-83 -48 -186 -48q-179 0 -287.5 104t-108.5 262q0 149 109.5 253.5t288.5 104.5q96 0 189 -54z" />
    <glyph glyph-name="D" unicode="D" horiz-adv-x="753" 
d="M83 700h242q103 0 179.5 -27.5t119.5 -75t63.5 -104t20.5 -123.5q0 -173 -105 -271.5t-291 -98.5h-229v700zM224 606v-512h86q123 0 185.5 67t62.5 210q0 110 -61 172.5t-171 62.5h-102z" />
    <glyph glyph-name="E" unicode="E" horiz-adv-x="542" 
d="M459 700v-94h-235v-192h230v-94h-230v-226h278v-94h-419v700h376z" />
    <glyph glyph-name="F" unicode="F" horiz-adv-x="508" 
d="M458 700v-94h-234v-230h230v-94h-230v-282h-141v700h375z" />
    <glyph glyph-name="G" unicode="G" horiz-adv-x="764" 
d="M533 320h141v-289q-129 -43 -234 -43q-178 0 -286.5 104t-108.5 262q0 149 110 253.5t289 104.5q117 0 200 -54l-45 -83q-70 37 -151 37q-113 0 -183 -71t-70 -189q0 -119 71.5 -191.5t167.5 -72.5q60 0 99 17v215z" />
    <glyph glyph-name="H" unicode="H" horiz-adv-x="741" 
d="M658 698v-698h-141v337h-293v-337h-141v700h141v-269h293v267h141z" />
    <glyph glyph-name="I" unicode="I" horiz-adv-x="307" 
d="M224 0h-141v700h141v-700z" />
    <glyph glyph-name="J" unicode="J" horiz-adv-x="307" 
d="M83 700h141v-655q0 -114 -57 -174.5t-154 -60.5v83q35 11 49 36q21 37 21 118v653z" />
    <glyph glyph-name="K" unicode="K" horiz-adv-x="648" 
d="M224 700v-303h2l251 313l112 -41l-236 -282l284 -359l-144 -38l-267 364h-2v-354h-141v700h141z" />
    <glyph glyph-name="L" unicode="L" horiz-adv-x="519" 
d="M83 0v700h141v-606h278v-94h-419z" />
    <glyph glyph-name="M" unicode="M" horiz-adv-x="960" 
d="M877 700v-700h-141v546h-2q-73 -185 -236 -546h-76q-155 362 -224 546h-2v-546h-113v700h174q191 -457 215 -536h2q32 90 239 536h164z" />
    <glyph glyph-name="N" unicode="N" horiz-adv-x="783" 
d="M700 700v-700h-102q-274 329 -400 502h-2v-502h-113v700h103q266 -317 399 -499h2v499h113z" />
    <glyph glyph-name="O" unicode="O" horiz-adv-x="788" 
d="M394 -12q-158 0 -253.5 106t-95.5 266q0 148 99.5 250t249.5 102t249.5 -102t99.5 -250q0 -160 -95.5 -266t-253.5 -106zM394 88q70 0 116.5 41.5t64.5 100t18 130.5q0 68 -20 123t-66 92t-113 37t-113 -37t-66 -92t-20 -123q0 -72 18 -130.5t64.5 -100t116.5 -41.5z" />
    <glyph glyph-name="P" unicode="P" horiz-adv-x="593" 
d="M224 606v-606h-141v700h220q121 0 188 -51t67 -151q0 -94 -74.5 -164t-195.5 -70h-33v87l31 3q55 3 93 38t38 101q0 54 -34 83.5t-96 29.5h-63z" />
    <glyph glyph-name="Q" unicode="Q" horiz-adv-x="788" 
d="M394 -12q-160 0 -254.5 102.5t-94.5 269.5q0 148 99.5 250t249.5 102t249.5 -102t99.5 -250q0 -227 -187 -331l241 -108l-55 -87l-309 154h-39zM394 88q70 0 116.5 41t64.5 99.5t18 131.5q0 68 -20 123t-66 92t-113 37t-113 -37t-66 -92t-20 -123q0 -75 18 -133.5
t64.5 -98.5t116.5 -40z" />
    <glyph glyph-name="R" unicode="R" horiz-adv-x="611" 
d="M224 606v-232h57q66 0 97 39.5t31 86.5q0 55 -32.5 80.5t-79.5 25.5h-73zM83 0v700h243q103 0 163.5 -47.5t60.5 -135.5q0 -133 -118 -203l166 -299l-148 -27l-142 292h-84v-280h-141z" />
    <glyph glyph-name="S" unicode="S" horiz-adv-x="556" 
d="M481 651l-50 -73q-59 40 -113 40q-43 0 -67 -21t-24 -53q0 -29 25 -55.5t88 -76.5q12 -9 18 -14q76 -60 110 -109.5t34 -110.5q0 -73 -65.5 -131.5t-176.5 -58.5q-130 0 -206 70l51 80q77 -56 143 -56q47 0 78 25t31 72q0 27 -18 55t-33 41.5t-54.5 42.5t-44.5 33
q-36 29 -50 41.5t-36 38t-30.5 52t-8.5 59.5q0 71 63.5 120.5t158.5 49.5q57 0 103.5 -17.5t73.5 -43.5z" />
    <glyph glyph-name="T" unicode="T" horiz-adv-x="593" 
d="M367 0h-141v606h-216v94h573v-94h-216v-606z" />
    <glyph glyph-name="U" unicode="U" horiz-adv-x="722" 
d="M78 700h141v-402q0 -107 35.5 -159.5t116.5 -52.5q76 0 113 56.5t37 147.5v410h126v-435q0 -130 -76.5 -203.5t-203.5 -73.5q-289 0 -289 284v428z" />
    <glyph glyph-name="V" unicode="V" horiz-adv-x="657" 
d="M377 0h-115l-260 690l150 20q116 -334 184 -558h2q64 202 194 558l121 -20z" />
    <glyph glyph-name="W" unicode="W" horiz-adv-x="995" 
d="M449 700h114q122 -391 168 -563h2q47 207 143 573l115 -20l-197 -690h-144q-102 326 -155 523h-2q-58 -220 -151 -523h-145l-195 690l139 20q87 -337 139 -573h2q53 197 167 563z" />
    <glyph glyph-name="X" unicode="X" horiz-adv-x="684" 
d="M650 12l-151 -22l-172 291l-166 -291l-127 22l225 368l-193 310l147 20l129 -224l128 224l123 -20l-187 -297z" />
    <glyph glyph-name="Y" unicode="Y" horiz-adv-x="630" 
d="M378 0h-141v293l-215 397l158 20q92 -190 146 -323q49 110 163 323l116 -20l-227 -397v-293z" />
    <glyph glyph-name="Z" unicode="Z" horiz-adv-x="609" 
d="M576 700v-44l-368 -565h381v-91h-569v48l370 561h-313v91h499z" />
    <glyph glyph-name="bracketleft" unicode="[" horiz-adv-x="352" 
d="M75 735h247v-66h-136v-788h136v-74h-247v928z" />
    <glyph glyph-name="backslash" unicode="\" 
d="M487 -108h-76l-324 843h76z" />
    <glyph glyph-name="bracketright" unicode="]" horiz-adv-x="352" 
d="M30 735h247v-928h-247v74h136v788h-136v66z" />
    <glyph glyph-name="asciicircum" unicode="^" 
d="M138 335h-77l184 365h85l183 -365h-76l-150 296z" />
    <glyph glyph-name="underscore" unicode="_" horiz-adv-x="500" 
d="M500 -125h-500v50h500v-50z" />
    <glyph glyph-name="grave" unicode="`" horiz-adv-x="352" 
d="M249 616l-36 -44l-154 92q-37 23 -37 49q0 41 42 41q18 0 54 -30z" />
    <glyph glyph-name="a" unicode="a" horiz-adv-x="538" 
d="M344 73l-30 -25q-77 -60 -128 -60q-60 0 -101.5 42.5t-41.5 109.5q0 69 47 112.5t138 69.5l118 35q-5 34 -31.5 54.5t-59.5 20.5q-73 0 -132 -51l-43 63q83 68 192 68q205 0 205 -186v-204q0 -76 21 -122h-141q-13 22 -13 73zM346 290l-74 -24q-98 -30 -98 -115
q0 -32 17.5 -53t42.5 -21q46 0 82.5 56t29.5 157z" />
    <glyph glyph-name="b" unicode="b" horiz-adv-x="623" 
d="M329 432q-62 0 -95 -50t-33 -138q0 -75 31.5 -125.5t94.5 -50.5q40 0 67 30.5t37.5 72t10.5 89.5q0 70 -30 121t-83 51zM68 0v735h133v-304h2q26 38 69.5 59.5t89.5 21.5q56 0 100.5 -23.5t69.5 -61t38 -80.5t13 -86q0 -112 -64.5 -192.5t-167.5 -80.5q-88 0 -150 74v-62
h-133z" />
    <glyph glyph-name="c" unicode="c" horiz-adv-x="478" 
d="M431 103l27 -76q-66 -39 -142 -39q-60 0 -108.5 17.5t-79 44.5t-51 62.5t-29 69t-8.5 66.5q0 110 77.5 187t205.5 77q72 0 130 -34l-32 -77q-20 9 -44 15q-23 6 -45 6q-62 0 -106.5 -42.5t-44.5 -124.5q0 -77 41 -127t111 -50q52 0 98 25z" />
    <glyph glyph-name="d" unicode="d" horiz-adv-x="624" 
d="M302 432q-61 0 -91 -47.5t-30 -125.5q0 -79 30 -135t85 -56q63 0 95 57t32 139q0 70 -32 119t-89 49zM423 0v72h-2q-66 -84 -163 -84q-98 0 -158 74t-60 194q0 101 65.5 178.5t162.5 77.5q49 0 90 -18.5t63 -51.5h2v293h133v-735h-133z" />
    <glyph glyph-name="e" unicode="e" horiz-adv-x="547" 
d="M506 238h-324q-2 -70 40.5 -117t105.5 -47q77 0 134 40l38 -70q-95 -56 -196 -56q-115 0 -189.5 75t-74.5 197q0 113 72.5 182.5t182.5 69.5q112 0 165.5 -77.5t45.5 -196.5zM184 310h197q4 59 -18 93.5t-70 34.5q-54 0 -82 -37t-27 -91z" />
    <glyph glyph-name="f" unicode="f" horiz-adv-x="352" 
d="M221 0h-133v432h-80v68h80v57q0 61 28.5 103.5t66 58.5t78.5 16q61 0 104 -22l-23 -66q-27 9 -57 9q-23 0 -43.5 -16.5t-20.5 -58.5v-81h120v-68h-120v-432z" />
    <glyph glyph-name="g" unicode="g" horiz-adv-x="624" 
d="M556 500v-455q0 -80 -22 -139t-62 -92t-88 -48.5t-107 -15.5q-118 0 -210 47l26 82q70 -43 174 -43q69 0 112.5 43t43.5 127v66h-2q-66 -84 -161 -84q-99 0 -159.5 74t-60.5 194q0 101 66.5 178.5t165.5 77.5q46 0 87 -20t62 -53h2v61h133zM302 432q-61 0 -91 -47.5
t-30 -125.5q0 -79 30 -135t85 -56q63 0 95 57t32 139q0 70 -32 119t-89 49z" />
    <glyph glyph-name="h" unicode="h" horiz-adv-x="618" 
d="M200 735v-294q67 71 171 71q179 0 179 -190v-322h-133v307q0 54 -25 85t-75 31q-51 0 -83.5 -33t-32.5 -92v-298h-133v735h132z" />
    <glyph glyph-name="i" unicode="i" horiz-adv-x="269" 
d="M68 500h133v-500h-133v500zM134 566q-34 0 -56.5 25.5t-22.5 58.5q0 30 22 53.5t55 23.5q34 0 58 -23.5t24 -53.5q0 -34 -22.5 -59t-57.5 -25z" />
    <glyph glyph-name="j" unicode="j" horiz-adv-x="269" 
d="M0 -250v49q37 7 52 38q16 37 16 123v540h133v-536q0 -119 -51 -166.5t-150 -47.5zM134 566q-34 0 -56.5 25.5t-22.5 58.5q0 30 22 53.5t55 23.5q34 0 58 -23.5t24 -53.5q0 -34 -22.5 -59t-57.5 -25z" />
    <glyph glyph-name="k" unicode="k" horiz-adv-x="512" 
d="M68 0v735h133v-432h15l167 207l98 -42l-152 -180l190 -253l-128 -45l-188 274h-2v-264h-133z" />
    <glyph glyph-name="l" unicode="l" horiz-adv-x="269" 
d="M201 0h-133v735h133v-735z" />
    <glyph glyph-name="m" unicode="m" horiz-adv-x="915" 
d="M200 500v-59h2q25 33 68.5 52t89.5 19q101 0 147 -71q32 31 77.5 50.5t88.5 20.5q84 1 128 -47t46 -136v-328h-133v304q0 50 -20 84t-66 34q-104 0 -104 -125v-298h-133v305q0 54 -23 86t-65 32q-48 0 -75 -32.5t-27 -95.5v-295h-133v500h132z" />
    <glyph glyph-name="n" unicode="n" horiz-adv-x="618" 
d="M200 500v-59q67 71 171 71q179 0 179 -190v-322h-133v307q0 54 -25 85t-75 31q-51 0 -83.5 -33t-32.5 -92v-298h-133v500h132z" />
    <glyph glyph-name="o" unicode="o" horiz-adv-x="605" 
d="M302 -12q-116 0 -189 75.5t-73 192.5q0 116 78 186t184 70q107 0 185 -70t78 -186q0 -117 -73 -192.5t-190 -75.5zM302 62q35 0 60 17.5t38 47t18.5 61.5t5.5 68q0 46 -10.5 84.5t-39 68t-72.5 29.5q-62 0 -91.5 -54.5t-29.5 -127.5q0 -49 9.5 -90t38 -72.5t73.5 -31.5z
" />
    <glyph glyph-name="p" unicode="p" horiz-adv-x="624" 
d="M329 432q-62 0 -95 -50t-33 -138q0 -78 34.5 -127t88.5 -49q61 0 90 57.5t29 134.5q0 70 -30 121t-84 51zM201 500v-69h2q26 37 70 59t90 22q56 0 100 -23.5t69.5 -61t38.5 -80.5t13 -86q0 -105 -65.5 -189t-167.5 -84q-88 0 -150 74v-312h-133v750h133z" />
    <glyph glyph-name="q" unicode="q" horiz-adv-x="624" 
d="M556 500v-750h-133v322h-2q-66 -84 -163 -84q-98 0 -158 74t-60 194q0 101 65.5 178.5t162.5 77.5q49 0 90 -18.5t63 -51.5h2v58h133zM302 432q-61 0 -91 -48t-30 -125q0 -78 30.5 -134.5t85.5 -56.5q64 0 95 54.5t31 141.5q0 70 -32 119t-89 49z" />
    <glyph glyph-name="r" unicode="r" horiz-adv-x="401" 
d="M200 500v-88h2l27 39q46 61 86 61q47 0 90 -45l-50 -92q-34 17 -63 17q-39 0 -65 -35t-26 -110v-247h-133v500h132z" />
    <glyph glyph-name="s" unicode="s" horiz-adv-x="426" 
d="M382 466l-43 -60q-44 32 -85 32q-24 0 -42 -13.5t-18 -37.5q0 -12 4.5 -22t16.5 -20.5t21.5 -18t30 -21.5t31.5 -22q92 -69 92 -151q0 -55 -54 -99.5t-133 -44.5q-86 0 -167 57l42 69q60 -48 109 -48q31 0 51.5 16t20.5 46q0 14 -5 25.5t-17.5 23.5t-20.5 18.5
t-29.5 20.5t-27.5 19q-48 33 -72 64.5t-24 74.5q0 59 50 98.5t124 39.5q93 0 145 -46z" />
    <glyph glyph-name="t" unicode="t" horiz-adv-x="389" 
d="M225 650v-150h131v-68h-131v-246q0 -117 69 -117q30 0 64 17l23 -66q-59 -32 -131 -32q-158 0 -158 160v284h-70v68h70v120z" />
    <glyph glyph-name="u" unicode="u" horiz-adv-x="591" 
d="M391 0v62q-74 -74 -159 -74q-81 0 -125 48.5t-44 141.5v322h133v-303q0 -54 24 -85t70 -31q39 0 69.5 33.5t30.5 96.5v289h133v-500h-132z" />
    <glyph glyph-name="v" unicode="v" horiz-adv-x="519" 
d="M299 0h-93l-204 486l133 24q90 -240 129 -370h2q47 144 137 370l114 -21z" />
    <glyph glyph-name="w" unicode="w" horiz-adv-x="817" 
d="M368 500h94q86 -214 128 -345h2q32 124 108 355l115 -16l-180 -494h-105q-90 232 -129 354h-2q-38 -121 -126 -354h-91l-180 485l127 25q76 -231 108 -355h2q38 119 129 345z" />
    <glyph glyph-name="x" unicode="x" horiz-adv-x="533" 
d="M518 25l-135 -35l-129 189l-133 -189l-106 35l180 237l-152 213l134 35l103 -159l111 159l102 -29l-159 -210z" />
    <glyph glyph-name="y" unicode="y" horiz-adv-x="519" 
d="M2 486l133 24q90 -240 129 -370h2q47 144 137 370l113 -21l-247 -556q-81 -183 -219 -183h-56v89h35q52 0 89 38.5t74 153.5z" />
    <glyph glyph-name="z" unicode="z" horiz-adv-x="513" 
d="M468 500v-48l-261 -372h276v-80h-453v38l276 384h-234v78h396z" />
    <glyph glyph-name="braceleft" unicode="{" horiz-adv-x="352" 
d="M330 735v-62q-36 -6 -59.5 -31.5t-23.5 -69.5v-141q0 -61 -15 -97t-61 -68q45 -32 60 -68t15 -97v-141q0 -44 23.5 -69.5t59.5 -31.5v-62q-96 0 -145 44.5t-49 140.5v135q0 55 -15.5 82.5t-60.5 41.5l1 50q45 14 60.5 41.5t15.5 82.5v135q0 96 49 140.5t145 44.5z" />
    <glyph glyph-name="bar" unicode="|" horiz-adv-x="259" 
d="M90 -250v1000h78v-1000h-78z" />
    <glyph glyph-name="braceright" unicode="}" horiz-adv-x="352" 
d="M22 673v62q96 0 145 -44.5t49 -140.5v-135q0 -55 15.5 -82.5t60.5 -41.5l1 -50q-45 -14 -60.5 -41.5t-15.5 -82.5v-135q0 -96 -49 -140.5t-145 -44.5v62q36 6 59.5 31.5t23.5 69.5v141q0 61 15 97t60 68q-46 32 -61 68t-15 97v141q0 44 -23.5 69.5t-59.5 31.5z" />
    <glyph glyph-name="asciitilde" unicode="~" 
d="M477 328l52 -45q-34 -50 -62 -74.5t-70 -24.5q-39 0 -101 31q-66 30 -108 30q-24 0 -44 -13t-28 -23.5t-20 -30.5l-51 46q32 52 63 78t77 26q35 0 111 -30q72 -31 95 -31q22 0 40 10.5t26.5 21.5t19.5 29z" />
    <glyph glyph-name="uni00A0" unicode="&#xa0;" horiz-adv-x="287" 
 />
    <glyph glyph-name="exclamdown" unicode="&#xa1;" horiz-adv-x="296" 
d="M105 299h85l28 -198v-336h-141v336zM73 437q0 31 22.5 53t53.5 22q29 0 51.5 -22.5t22.5 -52.5q0 -29 -22.5 -52t-50.5 -23q-32 0 -54.5 22t-22.5 53z" />
    <glyph glyph-name="cent" unicode="&#xa2;" 
d="M250 114l66 307q-55 -10 -90.5 -51.5t-35.5 -111.5q0 -96 60 -144zM335 512l15 68l76 -13l-14 -65q42 -8 72 -28l-36 -72q-19 10 -53 19l-74 -339q22 -4 37 -4q52 0 101 29l33 -74q-71 -45 -157 -45q-19 0 -34 3l-17 -83l-75 14l18 84q-62 21 -104 66.5t-58 91t-16 88.5
q0 110 77.5 184.5t208.5 75.5z" />
    <glyph glyph-name="sterling" unicode="&#xa3;" 
d="M166 338h-103v69h106l16 103q12 86 76 144t168 58q105 0 166 -70l-55 -52q-45 37 -88 37q-48 0 -82 -27.5t-42 -82.5l-18 -110h150v-68h-154l-6 -59q-4 -46 -22 -100t-44 -72v-2q4 0 79.5 -8.5t137.5 -8.5q54 0 107 33l51 -70q-24 -29 -72.5 -46.5t-103.5 -17.5
q-52 0 -116 8.5t-108.5 11t-165.5 -7.5v75q85 33 97 102q1 8 9.5 64.5t16.5 96.5z" />
    <glyph glyph-name="currency" unicode="&#xa4;" 
d="M25 146l59 59q-45 58 -45 142q0 93 45 147l-59 59l55 56l60 -59q61 46 150 46q85 0 141 -46l60 59l55 -55l-55 -56q44 -60 44 -149q0 -91 -46 -143l59 -59l-54 -58l-59 59q-58 -48 -146 -48q-92 0 -150 49l-59 -59zM290 513q-70 0 -119 -48t-49 -117t49 -117t118 -48
q68 0 115.5 49t47.5 118q0 66 -48 114.5t-114 48.5z" />
    <glyph glyph-name="yen" unicode="&#xa5;" 
d="M549 402v-68h-181l-22 -41v-34h203v-68h-203v-191h-141v191h-201v68h201v34l-25 41h-176v68h142l-143 286l143 22l146 -320l166 320l113 -14l-164 -294h142z" />
    <glyph glyph-name="brokenbar" unicode="&#xa6;" horiz-adv-x="259" 
d="M90 -175v350h78v-350h-78zM90 325v350h78v-350h-78z" />
    <glyph glyph-name="section" unicode="&#xa7;" 
d="M54 -82l37 80q70 -56 143 -56q38 0 59.5 15t22.5 39q1 17 -8 33.5t-33 35t-37.5 27.5t-49.5 31q-71 45 -108 83t-37 90q0 57 41 91.5t102 50.5q-90 62 -90 136q0 57 53.5 97.5t144.5 40.5q123 0 185 -60l-53 -67q-62 44 -118 44q-33 0 -52 -15t-19 -40q0 -16 12.5 -32
t26 -26t45 -30.5t48.5 -33.5q7 -5 28.5 -21t28.5 -21t24.5 -18.5t23.5 -20t18.5 -19t17 -21t11 -20.5t8.5 -23.5t2 -23.5q0 -48 -45.5 -91.5t-107.5 -47.5v-1q83 -57 83 -133q0 -55 -54.5 -97t-151.5 -42q-64 0 -119.5 20t-81.5 46zM175 306q0 -36 42.5 -72t90.5 -52
q45 3 68.5 22t23.5 51q0 7 -3 15t-10 16.5t-13.5 16t-17.5 16.5t-18.5 15.5t-21 15.5t-19 13t-18 12t-14.5 9q-90 -13 -90 -78z" />
    <glyph glyph-name="dieresis" unicode="&#xa8;" horiz-adv-x="444" 
d="M113 679q23 0 40 -16.5t17 -39.5t-17 -40t-40 -17q-22 0 -39 17t-17 40q0 21 17 38.5t39 17.5zM330 679q23 0 40 -16.5t17 -39.5t-17 -40t-40 -17q-22 0 -39 17t-17 40q0 21 17 38.5t39 17.5z" />
    <glyph glyph-name="copyright" unicode="&#xa9;" horiz-adv-x="759" 
d="M524 533l-31 -63q-31 18 -73 18q-60 0 -99.5 -36t-39.5 -96t41.5 -97t101.5 -37q37 0 71 16l27 -65q-44 -23 -102 -23q-108 0 -175.5 58.5t-67.5 149.5q0 86 67.5 144t174.5 58q51 0 105 -27zM379 -12q-146 0 -250 106t-104 255t104 256t250 107q147 0 251 -106.5
t104 -256.5q0 -149 -104 -255t-251 -106zM379 47q119 0 205 89.5t86 212.5q0 124 -85.5 214t-205.5 90q-119 0 -204.5 -90t-85.5 -214q0 -123 85.5 -212.5t204.5 -89.5z" />
    <glyph glyph-name="ordfeminine" unicode="&#xaa;" horiz-adv-x="389" 
d="M241 445l-19 -13q-51 -34 -98 -34q-35 0 -62.5 22t-27.5 58q0 88 133 122l77 21q-4 16 -20.5 26.5t-36.5 10.5q-50 0 -87 -29l-30 42q56 41 141 41q140 0 140 -115v-119q0 -46 13 -73h-115q-8 14 -8 40zM244 578l-45 -14q-58 -17 -58 -66q0 -18 10.5 -30t25.5 -12
q28 0 49.5 31.5t17.5 90.5z" />
    <glyph glyph-name="guillemotleft" unicode="&#xab;" horiz-adv-x="500" 
d="M6 235l181 184l58 -28l-114 -152l128 -148l-56 -34zM217 235l181 184l58 -28l-114 -152l128 -148l-56 -34z" />
    <glyph glyph-name="logicalnot" unicode="&#xac;" 
d="M461 112v199h-426v78h504v-277h-78z" />
    <glyph glyph-name="uni00AD" unicode="&#xad;" horiz-adv-x="333" 
d="M291 195h-249v86h249v-86z" />
    <glyph glyph-name="registered" unicode="&#xae;" horiz-adv-x="759" 
d="M338 499v-118h34q33 0 49 19.5t16 43.5q0 55 -60 55h-39zM243 170v387h154q64 0 100.5 -27t36.5 -75q0 -76 -69 -112l98 -165l-100 -14l-81 159h-44v-153h-95zM380 -12q-147 0 -251 106.5t-104 256.5q0 149 104 255t251 106q146 0 250 -106t104 -255q0 -150 -104 -256.5
t-250 -106.5zM380 47q120 0 205 90t85 214q0 123 -85.5 212.5t-204.5 89.5t-205 -89.5t-86 -212.5q0 -124 85.5 -214t205.5 -90z" />
    <glyph glyph-name="macron" unicode="&#xaf;" horiz-adv-x="500" 
d="M436 612h-372v68h372v-68z" />
    <glyph glyph-name="degree" unicode="&#xb0;" horiz-adv-x="370" 
d="M185 657q-36 0 -62.5 -26.5t-26.5 -62.5t27 -62t62 -26t61.5 27t26.5 61q0 35 -26 62t-62 27zM185 425q-59 0 -101.5 42.5t-42.5 100.5t43 101t101 43t100.5 -42.5t42.5 -101.5q0 -58 -42 -100.5t-101 -42.5z" />
    <glyph glyph-name="plusminus" unicode="&#xb1;" 
d="M247 407v214h78v-214h213v-78h-213v-214h-78v214h-213v78h213zM36 0v78h504v-78h-504z" />
    <glyph glyph-name="twosuperior" unicode="&#xb2;" horiz-adv-x="426" 
d="M32 285v47l77 69q77 69 110.5 113.5t33.5 79.5q0 21 -16.5 37.5t-42.5 16.5q-44 0 -102 -41l-38 46q61 59 162 59q63 0 107.5 -29t44.5 -80q0 -36 -22.5 -71.5t-88.5 -98.5l-80 -78h194v-70h-339z" />
    <glyph glyph-name="threesuperior" unicode="&#xb3;" horiz-adv-x="426" 
d="M115 482v47q51 0 86 18.5t35 53.5q0 30 -18.5 43t-44.5 13q-44 0 -80 -21l-26 46q60 30 135 30q23 0 44.5 -3.5t45.5 -13t38.5 -30t15.5 -49.5q1 -38 -29.5 -65t-62.5 -36v-2q17 -2 32.5 -6.5t37 -15.5t35 -33.5t14.5 -53.5q1 -51 -47.5 -89.5t-138.5 -37.5
q-57 1 -124 21l26 53q34 -19 86 -19q36 0 60.5 20t24.5 54q0 42 -43.5 59.5t-101.5 16.5z" />
    <glyph glyph-name="acute" unicode="&#xb4;" horiz-adv-x="352" 
d="M132 572l-37 40l148 129q33 29 60 29q15 0 24.5 -12t9.5 -22q0 -28 -39 -53z" />
    <glyph glyph-name="mu" unicode="&#xb5;" horiz-adv-x="606" 
d="M406 0v62q-79 -74 -164 -74q-18 0 -45 9t-40 24l-2 -2q2 -7 10 -45t10.5 -54t7 -48.5t5.5 -64.5l-121 -23v716h133v-303q0 -54 25 -85t75 -31q48 0 76.5 34.5t28.5 95.5v289h133v-500h-132z" />
    <glyph glyph-name="paragraph" unicode="&#xb6;" horiz-adv-x="593" 
d="M541 -169h-112v802h-56v-802h-112v450q-117 -1 -174 55t-57 154q0 95 56.5 152.5t174.5 57.5h280v-869zM261 350v283q-59 0 -84 -35t-25 -110q0 -138 109 -138z" />
    <glyph glyph-name="periodcentered" unicode="&#xb7;" horiz-adv-x="287" 
d="M68 253q0 31 22.5 53t53.5 22q29 0 51.5 -22.5t22.5 -52.5q0 -29 -22.5 -52t-50.5 -23q-32 0 -54.5 22t-22.5 53z" />
    <glyph glyph-name="cedilla" unicode="&#xb8;" horiz-adv-x="333" 
d="M201 10l-30 -68q36 0 66 -19.5t30 -59.5q0 -11 -5 -22.5t-18.5 -27t-38 -24.5t-64.5 -15.5t-96 0.5l24 52q27 -4 49 -4q58 0 58 35t-91 35l52 118h64z" />
    <glyph glyph-name="onesuperior" unicode="&#xb9;" horiz-adv-x="426" 
d="M278 712v-427h-106v364l-89 -34l-15 52l124 45h86z" />
    <glyph glyph-name="ordmasculine" unicode="&#xba;" horiz-adv-x="444" 
d="M221 398q-83 0 -135 45.5t-52 115.5t55.5 111.5t131.5 41.5t131 -41.5t55 -111.5t-51.5 -115.5t-134.5 -45.5zM221 654q-38 0 -55.5 -28t-17.5 -67q0 -42 16.5 -72.5t56.5 -30.5q72 0 72 103q0 39 -17 67t-55 28z" />
    <glyph glyph-name="guillemotright" unicode="&#xbb;" horiz-adv-x="500" 
d="M494 241l-181 -184l-58 28l114 152l-128 148l56 34zM283 241l-181 -184l-58 28l114 152l-128 148l56 34z" />
    <glyph glyph-name="onequarter" unicode="&#xbc;" horiz-adv-x="981" 
d="M872 420v-257h56v-58h-56v-105h-103v105h-210v43l233 272h80zM646 163h123v148h-2zM314 0h-89l418 700h88zM283 712v-427h-106v364l-89 -34l-15 52l124 45h86z" />
    <glyph glyph-name="onehalf" unicode="&#xbd;" horiz-adv-x="981" 
d="M288 712v-427h-106v364l-89 -34l-15 52l124 45h86zM583 0v47l77 69q77 69 110.5 113.5t33.5 79.5q0 21 -16.5 37.5t-42.5 16.5q-44 0 -102 -41l-38 46q61 59 162 59q63 0 107.5 -29t44.5 -80q0 -36 -22.5 -71.5t-88.5 -98.5l-80 -78h194v-70h-339zM304 0h-89l418 700h88z
" />
    <glyph glyph-name="threequarters" unicode="&#xbe;" horiz-adv-x="981" 
d="M862 420v-257h56v-58h-56v-105h-103v105h-210v43l233 272h80zM636 163h123v148h-2zM354 0h-89l418 700h88zM135 482v47q51 0 86 18.5t35 53.5q0 30 -18.5 43t-44.5 13q-44 0 -80 -21l-26 46q60 30 135 30q23 0 44.5 -3.5t45.5 -13t38.5 -30t15.5 -49.5q1 -38 -29.5 -65
t-62.5 -36v-2q17 -2 32.5 -6.5t37 -15.5t35 -33.5t14.5 -53.5q1 -51 -47.5 -89.5t-138.5 -37.5q-57 1 -124 21l26 53q34 -19 86 -19q36 0 60.5 20t24.5 54q0 42 -43.5 59.5t-101.5 16.5z" />
    <glyph glyph-name="questiondown" unicode="&#xbf;" horiz-adv-x="463" 
d="M228 289h113q3 -34 -8 -68.5t-21.5 -52t-38.5 -58.5q-47 -71 -63 -106t-16 -70q0 -39 28.5 -60.5t65.5 -21.5q51 0 116 65l55 -59q-76 -93 -205 -93q-92 0 -152 41.5t-60 119.5q0 38 19.5 75t58.5 84.5t46 58.5q19 29 27.5 43t19.5 42.5t15 59.5zM214 437q0 31 22.5 53
t53.5 22q29 0 51.5 -22.5t22.5 -52.5q0 -29 -22.5 -52t-50.5 -23q-32 0 -54.5 22t-22.5 53z" />
    <glyph glyph-name="Agrave" unicode="&#xc0;" horiz-adv-x="667" 
d="M286 700h117l263 -700h-158l-65 191h-248l-72 -191h-122zM232 277h190q-10 31 -28.5 86t-34 103t-30.5 96h-2q-22 -80 -95 -285zM419 796l-36 -44l-154 92q-37 23 -37 49q0 41 42 41q18 0 54 -30z" />
    <glyph glyph-name="Aacute" unicode="&#xc1;" horiz-adv-x="667" 
d="M286 700h117l263 -700h-158l-65 191h-248l-72 -191h-122zM232 277h190q-10 31 -28.5 86t-34 103t-30.5 96h-2q-22 -80 -95 -285zM302 752l-37 40l148 129q33 29 60 29q15 0 24.5 -12t9.5 -22q0 -28 -39 -53z" />
    <glyph glyph-name="Acircumflex" unicode="&#xc2;" horiz-adv-x="667" 
d="M286 700h117l263 -700h-158l-65 191h-248l-72 -191h-122zM232 277h190q-10 31 -28.5 86t-34 103t-30.5 96h-2q-22 -80 -95 -285zM345 840l-101 -88h-65l125 152h83l125 -152h-66z" />
    <glyph glyph-name="Atilde" unicode="&#xc3;" horiz-adv-x="667" 
d="M286 700h117l263 -700h-158l-65 191h-248l-72 -191h-122zM232 277h190q-10 31 -28.5 86t-34 103t-30.5 96h-2q-22 -80 -95 -285zM494 889l47 -34q-52 -95 -110 -95q-27 0 -75 28q-48 27 -82 27q-16 0 -30 -10.5t-21 -21t-18 -31.5l-54 27q53 108 124 108q24 0 82 -27
q54 -28 73 -28q21 0 35 14.5t29 42.5z" />
    <glyph glyph-name="Adieresis" unicode="&#xc4;" horiz-adv-x="667" 
d="M286 700h117l263 -700h-158l-65 191h-248l-72 -191h-122zM232 277h190q-10 31 -28.5 86t-34 103t-30.5 96h-2q-22 -80 -95 -285zM237 859q23 0 40 -16.5t17 -39.5t-17 -40t-40 -17q-22 0 -39 17t-17 40q0 21 17 38.5t39 17.5zM454 859q23 0 40 -16.5t17 -39.5t-17 -40
t-40 -17q-22 0 -39 17t-17 40q0 21 17 38.5t39 17.5z" />
    <glyph glyph-name="Aring" unicode="&#xc5;" horiz-adv-x="667" 
d="M286 700h117l263 -700h-158l-65 191h-248l-72 -191h-122zM232 277h190q-10 31 -28.5 86t-34 103t-30.5 96h-2q-22 -80 -95 -285zM345 895q-22 0 -38 -16t-16 -38q0 -21 16.5 -37t37.5 -16t37.5 16t16.5 37t-16 37.5t-38 16.5zM345 742q-40 0 -70 29.5t-30 69.5t30.5 70
t70.5 30t69.5 -29.5t29.5 -70.5t-29.5 -70t-70.5 -29z" />
    <glyph glyph-name="AE" unicode="&#xc6;" horiz-adv-x="896" 
d="M437 0v191h-214l-108 -191h-115l389 700h424v-94h-235v-192h230v-94h-230v-226h278v-94h-419zM277 277h160v299h-2z" />
    <glyph glyph-name="Ccedilla" unicode="&#xc7;" horiz-adv-x="671" 
d="M632 658l-44 -85q-74 39 -145 39q-109 0 -178.5 -71t-69.5 -189q0 -121 72.5 -192.5t179.5 -71.5q76 0 141 35l39 -87q-83 -48 -186 -48q-42 0 -78 6l-23 -52q36 0 66 -19.5t30 -59.5q0 -11 -5 -22.5t-18.5 -27t-38 -24.5t-64.5 -15.5t-96 0.5l24 52q27 -4 49 -4
q58 0 58 35t-91 35l51 115q-121 36 -190.5 129.5t-69.5 217.5q0 149 109.5 253.5t288.5 104.5q96 0 189 -54z" />
    <glyph glyph-name="Egrave" unicode="&#xc8;" horiz-adv-x="542" 
d="M459 700v-94h-235v-192h230v-94h-230v-226h278v-94h-419v700h376zM368 796l-36 -44l-154 92q-37 23 -37 49q0 41 42 41q18 0 54 -30z" />
    <glyph glyph-name="Eacute" unicode="&#xc9;" horiz-adv-x="542" 
d="M459 700v-94h-235v-192h230v-94h-230v-226h278v-94h-419v700h376zM251 752l-37 40l148 129q33 29 60 29q15 0 24.5 -12t9.5 -22q0 -28 -39 -53z" />
    <glyph glyph-name="Ecircumflex" unicode="&#xca;" horiz-adv-x="542" 
d="M459 700v-94h-235v-192h230v-94h-230v-226h278v-94h-419v700h376zM294 840l-101 -88h-65l125 152h83l125 -152h-66z" />
    <glyph glyph-name="Edieresis" unicode="&#xcb;" horiz-adv-x="542" 
d="M459 700v-94h-235v-192h230v-94h-230v-226h278v-94h-419v700h376zM186 859q23 0 40 -16.5t17 -39.5t-17 -40t-40 -17q-22 0 -39 17t-17 40q0 21 17 38.5t39 17.5zM403 859q23 0 40 -16.5t17 -39.5t-17 -40t-40 -17q-22 0 -39 17t-17 40q0 21 17 38.5t39 17.5z" />
    <glyph glyph-name="Igrave" unicode="&#xcc;" horiz-adv-x="307" 
d="M224 0h-141v700h141v-700zM238 796l-36 -44l-154 92q-37 23 -37 49q0 41 42 41q18 0 54 -30z" />
    <glyph glyph-name="Iacute" unicode="&#xcd;" horiz-adv-x="307" 
d="M224 0h-141v700h141v-700zM121 752l-37 40l148 129q33 29 60 29q15 0 24.5 -12t9.5 -22q0 -28 -39 -53z" />
    <glyph glyph-name="Icircumflex" unicode="&#xce;" horiz-adv-x="307" 
d="M224 0h-141v700h141v-700zM164 840l-101 -88h-65l125 152h83l125 -152h-66z" />
    <glyph glyph-name="Idieresis" unicode="&#xcf;" horiz-adv-x="307" 
d="M224 0h-141v700h141v-700zM56 859q23 0 40 -16.5t17 -39.5t-17 -40t-40 -17q-22 0 -39 17t-17 40q0 21 17 38.5t39 17.5zM273 859q23 0 40 -16.5t17 -39.5t-17 -40t-40 -17q-22 0 -39 17t-17 40q0 21 17 38.5t39 17.5z" />
    <glyph glyph-name="Eth" unicode="&#xd0;" horiz-adv-x="758" 
d="M-16 323v83h104v294h242q103 0 179.5 -27.5t119.5 -75t63.5 -104t20.5 -123.5q0 -173 -105 -271.5t-291 -98.5h-229v323h-104zM404 406v-83h-175v-229h86q123 0 185.5 67t62.5 210q0 110 -61 172.5t-171 62.5h-102v-200h175z" />
    <glyph glyph-name="Ntilde" unicode="&#xd1;" horiz-adv-x="783" 
d="M700 700v-700h-102q-274 329 -400 502h-2v-502h-113v700h103q266 -317 399 -499h2v499h113zM552 889l47 -34q-52 -95 -110 -95q-27 0 -75 28q-48 27 -82 27q-16 0 -30 -10.5t-21 -21t-18 -31.5l-54 27q53 108 124 108q24 0 82 -27q54 -28 73 -28q21 0 35 14.5t29 42.5z
" />
    <glyph glyph-name="Ograve" unicode="&#xd2;" horiz-adv-x="788" 
d="M394 -12q-158 0 -253.5 106t-95.5 266q0 148 99.5 250t249.5 102t249.5 -102t99.5 -250q0 -160 -95.5 -266t-253.5 -106zM394 88q70 0 116.5 41.5t64.5 100t18 130.5q0 68 -20 123t-66 92t-113 37t-113 -37t-66 -92t-20 -123q0 -72 18 -130.5t64.5 -100t116.5 -41.5z
M491 796l-36 -44l-154 92q-37 23 -37 49q0 41 42 41q18 0 54 -30z" />
    <glyph glyph-name="Oacute" unicode="&#xd3;" horiz-adv-x="788" 
d="M394 -12q-158 0 -253.5 106t-95.5 266q0 148 99.5 250t249.5 102t249.5 -102t99.5 -250q0 -160 -95.5 -266t-253.5 -106zM394 88q70 0 116.5 41.5t64.5 100t18 130.5q0 68 -20 123t-66 92t-113 37t-113 -37t-66 -92t-20 -123q0 -72 18 -130.5t64.5 -100t116.5 -41.5z
M374 752l-37 40l148 129q33 29 60 29q15 0 24.5 -12t9.5 -22q0 -28 -39 -53z" />
    <glyph glyph-name="Ocircumflex" unicode="&#xd4;" horiz-adv-x="788" 
d="M394 -12q-158 0 -253.5 106t-95.5 266q0 148 99.5 250t249.5 102t249.5 -102t99.5 -250q0 -160 -95.5 -266t-253.5 -106zM394 88q70 0 116.5 41.5t64.5 100t18 130.5q0 68 -20 123t-66 92t-113 37t-113 -37t-66 -92t-20 -123q0 -72 18 -130.5t64.5 -100t116.5 -41.5z
M405 840l-101 -88h-65l125 152h83l125 -152h-66z" />
    <glyph glyph-name="Otilde" unicode="&#xd5;" horiz-adv-x="788" 
d="M394 -12q-158 0 -253.5 106t-95.5 266q0 148 99.5 250t249.5 102t249.5 -102t99.5 -250q0 -160 -95.5 -266t-253.5 -106zM394 88q70 0 116.5 41.5t64.5 100t18 130.5q0 68 -20 123t-66 92t-113 37t-113 -37t-66 -92t-20 -123q0 -72 18 -130.5t64.5 -100t116.5 -41.5z
M554 889l47 -34q-52 -95 -110 -95q-27 0 -75 28q-48 27 -82 27q-16 0 -30 -10.5t-21 -21t-18 -31.5l-54 27q53 108 124 108q24 0 82 -27q54 -28 73 -28q21 0 35 14.5t29 42.5z" />
    <glyph glyph-name="Odieresis" unicode="&#xd6;" horiz-adv-x="788" 
d="M394 -12q-158 0 -253.5 106t-95.5 266q0 148 99.5 250t249.5 102t249.5 -102t99.5 -250q0 -160 -95.5 -266t-253.5 -106zM394 88q70 0 116.5 41.5t64.5 100t18 130.5q0 68 -20 123t-66 92t-113 37t-113 -37t-66 -92t-20 -123q0 -72 18 -130.5t64.5 -100t116.5 -41.5z
M297 859q23 0 40 -16.5t17 -39.5t-17 -40t-40 -17q-22 0 -39 17t-17 40q0 21 17 38.5t39 17.5zM514 859q23 0 40 -16.5t17 -39.5t-17 -40t-40 -17q-22 0 -39 17t-17 40q0 21 17 38.5t39 17.5z" />
    <glyph glyph-name="multiply" unicode="&#xd7;" 
d="M232 253l-158 158l55 55l158 -158l158 158l55 -55l-158 -158l158 -158l-55 -55l-158 158l-158 -158l-55 55z" />
    <glyph glyph-name="Oslash" unicode="&#xd8;" horiz-adv-x="788" 
d="M563 485l-307 -332q49 -65 138 -65q70 0 116.5 41.5t64.5 100t18 130.5q0 71 -30 125zM224 223l304 331q-52 58 -134 58q-67 0 -113 -37t-66 -92t-20 -123q0 -78 29 -137zM610 640l83 89l58 -47l-89 -94q81 -95 81 -228q0 -160 -95.5 -266t-253.5 -106q-133 0 -223 77
l-90 -98l-53 49l95 102q-78 98 -78 242q0 148 99.5 250t249.5 102q125 0 216 -72z" />
    <glyph glyph-name="Ugrave" unicode="&#xd9;" horiz-adv-x="722" 
d="M78 700h141v-402q0 -107 35.5 -159.5t116.5 -52.5q76 0 113 56.5t37 147.5v410h126v-435q0 -130 -76.5 -203.5t-203.5 -73.5q-289 0 -289 284v428zM458 796l-36 -44l-154 92q-37 23 -37 49q0 41 42 41q18 0 54 -30z" />
    <glyph glyph-name="Uacute" unicode="&#xda;" horiz-adv-x="722" 
d="M78 700h141v-402q0 -107 35.5 -159.5t116.5 -52.5q76 0 113 56.5t37 147.5v410h126v-435q0 -130 -76.5 -203.5t-203.5 -73.5q-289 0 -289 284v428zM329 752l-37 40l148 129q33 29 60 29q15 0 24.5 -12t9.5 -22q0 -28 -39 -53z" />
    <glyph glyph-name="Ucircumflex" unicode="&#xdb;" horiz-adv-x="722" 
d="M78 700h141v-402q0 -107 35.5 -159.5t116.5 -52.5q76 0 113 56.5t37 147.5v410h126v-435q0 -130 -76.5 -203.5t-203.5 -73.5q-289 0 -289 284v428zM372 840l-101 -88h-65l125 152h83l125 -152h-66z" />
    <glyph glyph-name="Udieresis" unicode="&#xdc;" horiz-adv-x="722" 
d="M78 700h141v-402q0 -107 35.5 -159.5t116.5 -52.5q76 0 113 56.5t37 147.5v410h126v-435q0 -130 -76.5 -203.5t-203.5 -73.5q-289 0 -289 284v428zM264 859q23 0 40 -16.5t17 -39.5t-17 -40t-40 -17q-22 0 -39 17t-17 40q0 21 17 38.5t39 17.5zM481 859q23 0 40 -16.5
t17 -39.5t-17 -40t-40 -17q-22 0 -39 17t-17 40q0 21 17 38.5t39 17.5z" />
    <glyph glyph-name="Yacute" unicode="&#xdd;" horiz-adv-x="630" 
d="M378 0h-141v293l-215 397l158 20q92 -190 146 -323q49 110 163 323l116 -20l-227 -397v-293zM295 752l-37 40l148 129q33 29 60 29q15 0 24.5 -12t9.5 -22q0 -28 -39 -53z" />
    <glyph glyph-name="Thorn" unicode="&#xde;" horiz-adv-x="593" 
d="M224 489v-277h36q70 0 113.5 38t43.5 114q0 59 -39 92t-111 33h-43zM224 0h-141v700h141v-125h70q130 0 197 -54t67 -157q0 -94 -74.5 -163.5t-199.5 -69.5h-60v-131z" />
    <glyph glyph-name="germandbls" unicode="&#xdf;" horiz-adv-x="661" 
d="M68 0v542q0 95 61.5 144t168.5 49q81 0 142 -43t61 -112q0 -42 -32.5 -100.5t-32.5 -83.5q0 -14 4.5 -26t17 -24t21.5 -19t30.5 -22t31.5 -22q92 -69 92 -151q0 -55 -54 -99.5t-133 -44.5q-106 0 -168 57l43 69q58 -48 108 -48q31 0 52 16t21 46q0 13 -5 25t-17.5 24
t-21 18.5t-29.5 20.5t-28 19q-48 33 -72 64.5t-24 74.5q0 5 0.5 10.5t1.5 10t3 10t3 8.5t4 9t4 8.5t5.5 9t5.5 8t5.5 9t5.5 8.5q37 58 37 102q0 42 -27 64t-57 22q-41 0 -68 -31.5t-27 -97.5v-524h-133z" />
    <glyph glyph-name="agrave" unicode="&#xe0;" horiz-adv-x="538" 
d="M344 73l-30 -25q-77 -60 -128 -60q-60 0 -101.5 42.5t-41.5 109.5q0 69 47 112.5t138 69.5l118 35q-5 34 -31.5 54.5t-59.5 20.5q-73 0 -132 -51l-43 63q83 68 192 68q205 0 205 -186v-204q0 -76 21 -122h-141q-13 22 -13 73zM346 290l-74 -24q-98 -30 -98 -115
q0 -32 17.5 -53t42.5 -21q46 0 82.5 56t29.5 157zM342 616l-36 -44l-154 92q-37 23 -37 49q0 41 42 41q18 0 54 -30z" />
    <glyph glyph-name="aacute" unicode="&#xe1;" horiz-adv-x="538" 
d="M344 73l-30 -25q-77 -60 -128 -60q-60 0 -101.5 42.5t-41.5 109.5q0 69 47 112.5t138 69.5l118 35q-5 34 -31.5 54.5t-59.5 20.5q-73 0 -132 -51l-43 63q83 68 192 68q205 0 205 -186v-204q0 -76 21 -122h-141q-13 22 -13 73zM346 290l-74 -24q-98 -30 -98 -115
q0 -32 17.5 -53t42.5 -21q46 0 82.5 56t29.5 157zM225 572l-37 40l148 129q33 29 60 29q15 0 24.5 -12t9.5 -22q0 -28 -39 -53z" />
    <glyph glyph-name="acircumflex" unicode="&#xe2;" horiz-adv-x="538" 
d="M344 73l-30 -25q-77 -60 -128 -60q-60 0 -101.5 42.5t-41.5 109.5q0 69 47 112.5t138 69.5l118 35q-5 34 -31.5 54.5t-59.5 20.5q-73 0 -132 -51l-43 63q83 68 192 68q205 0 205 -186v-204q0 -76 21 -122h-141q-13 22 -13 73zM346 290l-74 -24q-98 -30 -98 -115
q0 -32 17.5 -53t42.5 -21q46 0 82.5 56t29.5 157zM268 660l-101 -88h-65l125 152h83l125 -152h-66z" />
    <glyph glyph-name="atilde" unicode="&#xe3;" horiz-adv-x="538" 
d="M344 73l-30 -25q-77 -60 -128 -60q-60 0 -101.5 42.5t-41.5 109.5q0 69 47 112.5t138 69.5l118 35q-5 34 -31.5 54.5t-59.5 20.5q-73 0 -132 -51l-43 63q83 68 192 68q205 0 205 -186v-204q0 -76 21 -122h-141q-13 22 -13 73zM346 290l-74 -24q-98 -30 -98 -115
q0 -32 17.5 -53t42.5 -21q46 0 82.5 56t29.5 157zM417 709l47 -34q-52 -95 -110 -95q-27 0 -75 28q-48 27 -82 27q-16 0 -30 -10.5t-21 -21t-18 -31.5l-54 27q53 108 124 108q24 0 82 -27q54 -28 73 -28q21 0 35 14.5t29 42.5z" />
    <glyph glyph-name="adieresis" unicode="&#xe4;" horiz-adv-x="538" 
d="M344 73l-30 -25q-77 -60 -128 -60q-60 0 -101.5 42.5t-41.5 109.5q0 69 47 112.5t138 69.5l118 35q-5 34 -31.5 54.5t-59.5 20.5q-73 0 -132 -51l-43 63q83 68 192 68q205 0 205 -186v-204q0 -76 21 -122h-141q-13 22 -13 73zM346 290l-74 -24q-98 -30 -98 -115
q0 -32 17.5 -53t42.5 -21q46 0 82.5 56t29.5 157zM160 679q23 0 40 -16.5t17 -39.5t-17 -40t-40 -17q-22 0 -39 17t-17 40q0 21 17 38.5t39 17.5zM377 679q23 0 40 -16.5t17 -39.5t-17 -40t-40 -17q-22 0 -39 17t-17 40q0 21 17 38.5t39 17.5z" />
    <glyph glyph-name="aring" unicode="&#xe5;" horiz-adv-x="538" 
d="M344 73l-30 -25q-77 -60 -128 -60q-60 0 -101.5 42.5t-41.5 109.5q0 69 47 112.5t138 69.5l118 35q-5 34 -31.5 54.5t-59.5 20.5q-73 0 -132 -51l-43 63q83 68 192 68q205 0 205 -186v-204q0 -76 21 -122h-141q-13 22 -13 73zM346 290l-74 -24q-98 -30 -98 -115
q0 -32 17.5 -53t42.5 -21q46 0 82.5 56t29.5 157zM269 715q-22 0 -38 -16t-16 -38q0 -21 16.5 -37t37.5 -16t37.5 16t16.5 37t-16 37.5t-38 16.5zM269 562q-40 0 -70 29.5t-30 69.5t30.5 70t70.5 30t69.5 -29.5t29.5 -70.5t-29.5 -70t-70.5 -29z" />
    <glyph glyph-name="ae" unicode="&#xe6;" horiz-adv-x="851" 
d="M347 290l-74 -24q-99 -30 -99 -115q0 -32 18 -53t43 -21q46 0 82.5 56t29.5 157zM810 238h-324q-2 -70 40.5 -117t105.5 -47q77 0 134 40l38 -70q-95 -56 -196 -56q-75 0 -138 36t-87 84l-69 -60q-74 -60 -128 -60q-60 0 -101.5 42.5t-41.5 109.5q0 129 185 182l119 35
q-5 33 -31.5 54t-59.5 21q-72 0 -132 -51l-44 63q84 68 192 68q110 0 161 -55q69 55 166 55q112 0 165.5 -77.5t45.5 -196.5zM488 310h197q4 59 -18 93.5t-70 34.5q-54 0 -82 -37t-27 -91z" />
    <glyph glyph-name="ccedilla" unicode="&#xe7;" horiz-adv-x="478" 
d="M431 103l27 -76q-66 -39 -142 -39q-30 0 -49 4l-22 -50q36 0 66 -19.5t30 -59.5q0 -11 -5 -22.5t-18.5 -27t-38 -24.5t-64.5 -15.5t-96 0.5l24 52q27 -4 49 -4q58 0 58 35t-91 35l50 113q-86 30 -127.5 100.5t-41.5 142.5q0 110 77.5 187t205.5 77q72 0 130 -34l-32 -77
q-20 9 -44 15q-23 6 -45 6q-62 0 -106.5 -42.5t-44.5 -124.5q0 -77 41 -127t111 -50q52 0 98 25z" />
    <glyph glyph-name="egrave" unicode="&#xe8;" horiz-adv-x="547" 
d="M506 238h-324q-2 -70 40.5 -117t105.5 -47q77 0 134 40l38 -70q-95 -56 -196 -56q-115 0 -189.5 75t-74.5 197q0 113 72.5 182.5t182.5 69.5q112 0 165.5 -77.5t45.5 -196.5zM184 310h197q4 59 -18 93.5t-70 34.5q-54 0 -82 -37t-27 -91zM347 616l-36 -44l-154 92
q-37 23 -37 49q0 41 42 41q18 0 54 -30z" />
    <glyph glyph-name="eacute" unicode="&#xe9;" horiz-adv-x="547" 
d="M506 238h-324q-2 -70 40.5 -117t105.5 -47q77 0 134 40l38 -70q-95 -56 -196 -56q-115 0 -189.5 75t-74.5 197q0 113 72.5 182.5t182.5 69.5q112 0 165.5 -77.5t45.5 -196.5zM184 310h197q4 59 -18 93.5t-70 34.5q-54 0 -82 -37t-27 -91zM230 572l-37 40l148 129
q33 29 60 29q15 0 24.5 -12t9.5 -22q0 -28 -39 -53z" />
    <glyph glyph-name="ecircumflex" unicode="&#xea;" horiz-adv-x="547" 
d="M506 238h-324q-2 -70 40.5 -117t105.5 -47q77 0 134 40l38 -70q-95 -56 -196 -56q-115 0 -189.5 75t-74.5 197q0 113 72.5 182.5t182.5 69.5q112 0 165.5 -77.5t45.5 -196.5zM184 310h197q4 59 -18 93.5t-70 34.5q-54 0 -82 -37t-27 -91zM273 660l-101 -88h-65l125 152
h83l125 -152h-66z" />
    <glyph glyph-name="edieresis" unicode="&#xeb;" horiz-adv-x="547" 
d="M506 238h-324q-2 -70 40.5 -117t105.5 -47q77 0 134 40l38 -70q-95 -56 -196 -56q-115 0 -189.5 75t-74.5 197q0 113 72.5 182.5t182.5 69.5q112 0 165.5 -77.5t45.5 -196.5zM184 310h197q4 59 -18 93.5t-70 34.5q-54 0 -82 -37t-27 -91zM165 679q23 0 40 -16.5t17 -39.5
t-17 -40t-40 -17q-22 0 -39 17t-17 40q0 21 17 38.5t39 17.5zM382 679q23 0 40 -16.5t17 -39.5t-17 -40t-40 -17q-22 0 -39 17t-17 40q0 21 17 38.5t39 17.5z" />
    <glyph glyph-name="igrave" unicode="&#xec;" horiz-adv-x="269" 
d="M68 500h133v-500h-133v500zM208 616l-36 -44l-154 92q-37 23 -37 49q0 41 42 41q18 0 54 -30z" />
    <glyph glyph-name="iacute" unicode="&#xed;" horiz-adv-x="269" 
d="M68 500h133v-500h-133v500zM91 572l-37 40l148 129q33 29 60 29q15 0 24.5 -12t9.5 -22q0 -28 -39 -53z" />
    <glyph glyph-name="icircumflex" unicode="&#xee;" horiz-adv-x="269" 
d="M68 500h133v-500h-133v500zM134 660l-101 -88h-65l125 152h83l125 -152h-66z" />
    <glyph glyph-name="idieresis" unicode="&#xef;" horiz-adv-x="269" 
d="M68 500h133v-500h-133v500zM26 679q23 0 40 -16.5t17 -39.5t-17 -40t-40 -17q-22 0 -39 17t-17 40q0 21 17 38.5t39 17.5zM243 679q23 0 40 -16.5t17 -39.5t-17 -40t-40 -17q-22 0 -39 17t-17 40q0 21 17 38.5t39 17.5z" />
    <glyph glyph-name="eth" unicode="&#xf0;" horiz-adv-x="608" 
d="M305 439q-63 0 -92 -54t-29 -128q0 -50 9.5 -91t38 -72.5t73.5 -31.5q65 0 93.5 57.5t28.5 137.5q0 46 -10.5 85t-39 68t-72.5 29zM132 698l104 37q64 -31 95 -53l112 40l57 -38l-114 -44q182 -142 182 -344q0 -144 -72 -226t-191 -82q-116 0 -189 75.5t-73 192.5
q0 104 71.5 179.5t181.5 75.5q34 0 80 -13q-30 57 -89 105l-111 -42l-60 43l113 41q-36 27 -97 53z" />
    <glyph glyph-name="ntilde" unicode="&#xf1;" horiz-adv-x="618" 
d="M200 500v-59q67 71 171 71q179 0 179 -190v-322h-133v307q0 54 -25 85t-75 31q-51 0 -83.5 -33t-32.5 -92v-298h-133v500h132zM457 709l47 -34q-52 -95 -110 -95q-27 0 -75 28q-48 27 -82 27q-16 0 -30 -10.5t-21 -21t-18 -31.5l-54 27q53 108 124 108q24 0 82 -27
q54 -28 73 -28q21 0 35 14.5t29 42.5z" />
    <glyph glyph-name="ograve" unicode="&#xf2;" horiz-adv-x="605" 
d="M302 -12q-116 0 -189 75.5t-73 192.5q0 116 78 186t184 70q107 0 185 -70t78 -186q0 -117 -73 -192.5t-190 -75.5zM302 62q35 0 60 17.5t38 47t18.5 61.5t5.5 68q0 46 -10.5 84.5t-39 68t-72.5 29.5q-62 0 -91.5 -54.5t-29.5 -127.5q0 -49 9.5 -90t38 -72.5t73.5 -31.5z
M376 616l-36 -44l-154 92q-37 23 -37 49q0 41 42 41q18 0 54 -30z" />
    <glyph glyph-name="oacute" unicode="&#xf3;" horiz-adv-x="605" 
d="M302 -12q-116 0 -189 75.5t-73 192.5q0 116 78 186t184 70q107 0 185 -70t78 -186q0 -117 -73 -192.5t-190 -75.5zM302 62q35 0 60 17.5t38 47t18.5 61.5t5.5 68q0 46 -10.5 84.5t-39 68t-72.5 29.5q-62 0 -91.5 -54.5t-29.5 -127.5q0 -49 9.5 -90t38 -72.5t73.5 -31.5z
M259 572l-37 40l148 129q33 29 60 29q15 0 24.5 -12t9.5 -22q0 -28 -39 -53z" />
    <glyph glyph-name="ocircumflex" unicode="&#xf4;" horiz-adv-x="605" 
d="M302 -12q-116 0 -189 75.5t-73 192.5q0 116 78 186t184 70q107 0 185 -70t78 -186q0 -117 -73 -192.5t-190 -75.5zM302 62q35 0 60 17.5t38 47t18.5 61.5t5.5 68q0 46 -10.5 84.5t-39 68t-72.5 29.5q-62 0 -91.5 -54.5t-29.5 -127.5q0 -49 9.5 -90t38 -72.5t73.5 -31.5z
M302 660l-101 -88h-65l125 152h83l125 -152h-66z" />
    <glyph glyph-name="otilde" unicode="&#xf5;" horiz-adv-x="605" 
d="M302 -12q-116 0 -189 75.5t-73 192.5q0 116 78 186t184 70q107 0 185 -70t78 -186q0 -117 -73 -192.5t-190 -75.5zM302 62q35 0 60 17.5t38 47t18.5 61.5t5.5 68q0 46 -10.5 84.5t-39 68t-72.5 29.5q-62 0 -91.5 -54.5t-29.5 -127.5q0 -49 9.5 -90t38 -72.5t73.5 -31.5z
M451 709l47 -34q-52 -95 -110 -95q-27 0 -75 28q-48 27 -82 27q-16 0 -30 -10.5t-21 -21t-18 -31.5l-54 27q53 108 124 108q24 0 82 -27q54 -28 73 -28q21 0 35 14.5t29 42.5z" />
    <glyph glyph-name="odieresis" unicode="&#xf6;" horiz-adv-x="605" 
d="M302 -12q-116 0 -189 75.5t-73 192.5q0 116 78 186t184 70q107 0 185 -70t78 -186q0 -117 -73 -192.5t-190 -75.5zM302 62q35 0 60 17.5t38 47t18.5 61.5t5.5 68q0 46 -10.5 84.5t-39 68t-72.5 29.5q-62 0 -91.5 -54.5t-29.5 -127.5q0 -49 9.5 -90t38 -72.5t73.5 -31.5z
M194 679q23 0 40 -16.5t17 -39.5t-17 -40t-40 -17q-22 0 -39 17t-17 40q0 21 17 38.5t39 17.5zM411 679q23 0 40 -16.5t17 -39.5t-17 -40t-40 -17q-22 0 -39 17t-17 40q0 21 17 38.5t39 17.5z" />
    <glyph glyph-name="divide" unicode="&#xf7;" 
d="M539 214h-504v78h504v-78zM212 85q0 31 22.5 53t53.5 22q29 0 51.5 -22.5t22.5 -52.5q0 -29 -22.5 -52t-50.5 -23q-32 0 -54.5 22t-22.5 53zM212 421q0 31 22.5 53t53.5 22q29 0 51.5 -22.5t22.5 -52.5q0 -29 -22.5 -52t-50.5 -23q-32 0 -54.5 22t-22.5 53z" />
    <glyph glyph-name="oslash" unicode="&#xf8;" horiz-adv-x="605" 
d="M192 183l198 203q-29 52 -88 52q-43 0 -71.5 -29t-39 -68t-10.5 -85q0 -41 11 -73zM532 525l51 -48l-67 -67q49 -65 49 -154q0 -117 -73 -192.5t-190 -75.5q-93 0 -159 50l-67 -68l-50 50l67 68q-53 69 -53 168q0 116 78 186t184 70q94 0 164 -53zM416 313l-199 -203
q30 -48 85 -48q35 0 60 17.5t38 47t18.5 61.5t5.5 68q0 33 -8 57z" />
    <glyph glyph-name="ugrave" unicode="&#xf9;" horiz-adv-x="591" 
d="M391 0v62q-74 -74 -159 -74q-81 0 -125 48.5t-44 141.5v322h133v-303q0 -54 24 -85t70 -31q39 0 69.5 33.5t30.5 96.5v289h133v-500h-132zM369 616l-36 -44l-154 92q-37 23 -37 49q0 41 42 41q18 0 54 -30z" />
    <glyph glyph-name="uacute" unicode="&#xfa;" horiz-adv-x="591" 
d="M391 0v62q-74 -74 -159 -74q-81 0 -125 48.5t-44 141.5v322h133v-303q0 -54 24 -85t70 -31q39 0 69.5 33.5t30.5 96.5v289h133v-500h-132zM252 572l-37 40l148 129q33 29 60 29q15 0 24.5 -12t9.5 -22q0 -28 -39 -53z" />
    <glyph glyph-name="ucircumflex" unicode="&#xfb;" horiz-adv-x="591" 
d="M391 0v62q-74 -74 -159 -74q-81 0 -125 48.5t-44 141.5v322h133v-303q0 -54 24 -85t70 -31q39 0 69.5 33.5t30.5 96.5v289h133v-500h-132zM295 660l-101 -88h-65l125 152h83l125 -152h-66z" />
    <glyph glyph-name="udieresis" unicode="&#xfc;" horiz-adv-x="591" 
d="M391 0v62q-74 -74 -159 -74q-81 0 -125 48.5t-44 141.5v322h133v-303q0 -54 24 -85t70 -31q39 0 69.5 33.5t30.5 96.5v289h133v-500h-132zM187 679q23 0 40 -16.5t17 -39.5t-17 -40t-40 -17q-22 0 -39 17t-17 40q0 21 17 38.5t39 17.5zM404 679q23 0 40 -16.5t17 -39.5
t-17 -40t-40 -17q-22 0 -39 17t-17 40q0 21 17 38.5t39 17.5z" />
    <glyph glyph-name="yacute" unicode="&#xfd;" horiz-adv-x="519" 
d="M2 486l133 24q90 -240 129 -370h2q47 144 137 370l113 -21l-247 -556q-81 -183 -219 -183h-56v89h35q52 0 89 38.5t74 153.5zM216 572l-37 40l148 129q33 29 60 29q15 0 24.5 -12t9.5 -22q0 -28 -39 -53z" />
    <glyph glyph-name="thorn" unicode="&#xfe;" horiz-adv-x="624" 
d="M201 735v-304h2q26 37 70 59t90 22q56 0 100 -23.5t69.5 -61t38.5 -80.5t13 -86q0 -105 -65.5 -189t-167.5 -84q-88 0 -150 74v-312h-133v985h133zM329 432q-62 0 -95 -50t-33 -138q0 -78 34.5 -127t88.5 -49q61 0 90 57.5t29 134.5q0 70 -30 121t-84 51z" />
    <glyph glyph-name="ydieresis" unicode="&#xff;" horiz-adv-x="519" 
d="M2 486l133 24q90 -240 129 -370h2q47 144 137 370l113 -21l-247 -556q-81 -183 -219 -183h-56v89h35q52 0 89 38.5t74 153.5zM151 679q23 0 40 -16.5t17 -39.5t-17 -40t-40 -17q-22 0 -39 17t-17 40q0 21 17 38.5t39 17.5zM368 679q23 0 40 -16.5t17 -39.5t-17 -40
t-40 -17q-22 0 -39 17t-17 40q0 21 17 38.5t39 17.5z" />
    <glyph glyph-name="dotlessi" unicode="&#x131;" horiz-adv-x="269" 
d="M68 500h133v-500h-133v500z" />
    <glyph glyph-name="Lslash" unicode="&#x141;" horiz-adv-x="519" 
d="M319 498l36 -55l-131 -80v-269h278v-94h-419v278l-89 -53l-36 54l125 75v346h141v-260z" />
    <glyph glyph-name="lslash" unicode="&#x142;" horiz-adv-x="269" 
d="M281 545l36 -52l-116 -79v-414h-133v326l-83 -57l-35 53l118 80v333h133v-245z" />
    <glyph glyph-name="OE" unicode="&#x152;" horiz-adv-x="996" 
d="M678 606v-192h230v-94h-230v-226h278v-94h-419q-39 -6 -69 -8q-50 -4 -79 -4q-156 0 -250 105.5t-94 266.5q0 148 98 250t246 102q81 0 148 -12h376v-94h-235zM537 117v472q-55 23 -129 23q-107 0 -160 -72.5t-53 -179.5q0 -53 11 -99.5t34.5 -86.5t67 -63t102.5 -23
q75 0 127 29z" />
    <glyph glyph-name="oe" unicode="&#x153;" horiz-adv-x="947" 
d="M312 62q48 0 78.5 31.5t40.5 72t10 90.5q0 74 -31 128t-98 54t-99 -54.5t-32 -127.5q0 -36 6.5 -68t21 -61.5t41 -47t62.5 -17.5zM906 238h-324q-2 -70 40.5 -117t105.5 -47q77 0 134 40l38 -70q-95 -56 -196 -56q-111 0 -196 76q-74 -76 -196 -76q-121 0 -196.5 75.5
t-75.5 192.5q0 116 81 186t191 70q104 0 202 -68q71 68 181 68q112 0 165.5 -77.5t45.5 -196.5zM584 310h197q4 59 -18 93.5t-70 34.5q-54 0 -82 -37t-27 -91z" />
    <glyph glyph-name="Scaron" unicode="&#x160;" horiz-adv-x="556" 
d="M481 651l-50 -73q-59 40 -113 40q-43 0 -67 -21t-24 -53q0 -29 25 -55.5t88 -76.5q12 -9 18 -14q76 -60 110 -109.5t34 -110.5q0 -73 -65.5 -131.5t-176.5 -58.5q-130 0 -206 70l51 80q77 -56 143 -56q47 0 78 25t31 72q0 27 -18 55t-33 41.5t-54.5 42.5t-44.5 33
q-36 29 -50 41.5t-36 38t-30.5 52t-8.5 59.5q0 71 63.5 120.5t158.5 49.5q57 0 103.5 -17.5t73.5 -43.5zM302 816l101 88h65l-125 -152h-83l-125 152h66z" />
    <glyph glyph-name="scaron" unicode="&#x161;" horiz-adv-x="426" 
d="M382 466l-43 -60q-44 32 -85 32q-24 0 -42 -13.5t-18 -37.5q0 -12 4.5 -22t16.5 -20.5t21.5 -18t30 -21.5t31.5 -22q92 -69 92 -151q0 -55 -54 -99.5t-133 -44.5q-86 0 -167 57l42 69q60 -48 109 -48q31 0 51.5 16t20.5 46q0 14 -5 25.5t-17.5 23.5t-20.5 18.5
t-29.5 20.5t-27.5 19q-48 33 -72 64.5t-24 74.5q0 59 50 98.5t124 39.5q93 0 145 -46zM213 636l101 88h65l-125 -152h-83l-125 152h66z" />
    <glyph glyph-name="Ydieresis" unicode="&#x178;" horiz-adv-x="630" 
d="M378 0h-141v293l-215 397l158 20q92 -190 146 -323q49 110 163 323l116 -20l-227 -397v-293zM218 859q23 0 40 -16.5t17 -39.5t-17 -40t-40 -17q-22 0 -39 17t-17 40q0 21 17 38.5t39 17.5zM435 859q23 0 40 -16.5t17 -39.5t-17 -40t-40 -17q-22 0 -39 17t-17 40
q0 21 17 38.5t39 17.5z" />
    <glyph glyph-name="Zcaron" unicode="&#x17d;" horiz-adv-x="609" 
d="M576 700v-44l-368 -565h381v-91h-569v48l370 561h-313v91h499zM329 816l101 88h65l-125 -152h-83l-125 152h66z" />
    <glyph glyph-name="zcaron" unicode="&#x17e;" horiz-adv-x="513" 
d="M468 500v-48l-261 -372h276v-80h-453v38l276 384h-234v78h396zM257 636l101 88h65l-125 -152h-83l-125 152h66z" />
    <glyph glyph-name="florin" unicode="&#x192;" 
d="M510 480l-14 -68h-120l-93 -446q-13 -61 -50 -103.5t-78 -58.5t-82 -16q-61 0 -99 22l36 66q26 -9 55 -9q23 0 47 17t33 58l98 470h-80l14 68h80l16 77q13 61 50 103.5t78 58.5t82 16q61 0 99 -22l-36 -66q-25 9 -56 9q-23 0 -46.5 -16.5t-32.5 -58.5l-21 -101h120z" />
    <glyph glyph-name="circumflex" unicode="&#x2c6;" horiz-adv-x="444" 
d="M221 660l-101 -88h-65l125 152h83l125 -152h-66z" />
    <glyph glyph-name="caron" unicode="&#x2c7;" horiz-adv-x="444" 
d="M222 636l101 88h65l-125 -152h-83l-125 152h66z" />
    <glyph glyph-name="uni02C9" unicode="&#x2c9;" horiz-adv-x="500" 
d="M436 612h-372v68h372v-68z" />
    <glyph glyph-name="breve" unicode="&#x2d8;" horiz-adv-x="500" 
d="M62 739h70q5 -32 38.5 -63t79.5 -31t79.5 31t38.5 63h70q-2 -56 -55 -111.5t-133 -55.5t-133 55.5t-55 111.5z" />
    <glyph glyph-name="dotaccent" unicode="&#x2d9;" horiz-adv-x="259" 
d="M128 704q32 0 51.5 -18.5t19.5 -50.5q0 -31 -19.5 -50.5t-49.5 -19.5t-50 20t-20 50q0 29 19.5 49t48.5 20z" />
    <glyph glyph-name="ring" unicode="&#x2da;" horiz-adv-x="315" 
d="M157 715q-22 0 -38 -16t-16 -38q0 -21 16.5 -37t37.5 -16t37.5 16t16.5 37t-16 37.5t-38 16.5zM157 562q-40 0 -70 29.5t-30 69.5t30.5 70t70.5 30t69.5 -29.5t29.5 -70.5t-29.5 -70t-70.5 -29z" />
    <glyph glyph-name="ogonek" unicode="&#x2db;" horiz-adv-x="315" 
d="M229 -64l27 -38q-63 -53 -125 -53q-37 0 -55 19.5t-18 49.5q0 20 14 47.5t32 46.5h64q-45 -47 -45 -74q0 -17 10.5 -26.5t28.5 -9.5q29 0 67 38z" />
    <glyph glyph-name="tilde" unicode="&#x2dc;" horiz-adv-x="500" 
d="M398 709l47 -34q-52 -95 -110 -95q-27 0 -75 28q-48 27 -82 27q-16 0 -30 -10.5t-21 -21t-18 -31.5l-54 27q53 108 124 108q24 0 82 -27q54 -28 73 -28q21 0 35 14.5t29 42.5z" />
    <glyph glyph-name="hungarumlaut" unicode="&#x2dd;" 
d="M102 572l-37 40l148 129q35 29 60 29q15 0 24.5 -12.5t9.5 -22.5q0 -26 -39 -53zM304 572l-37 40l147 129q37 29 61 29q15 0 24.5 -12.5t9.5 -22.5q0 -25 -40 -53z" />
    <glyph glyph-name="uni03A9" unicode="&#x3a9;" horiz-adv-x="731" 
d="M184 96v3q-55 48 -92 121.5t-37 163.5q0 137 88 231t225 94q94 0 165.5 -48t106.5 -120t35 -151q0 -93 -37.5 -168.5t-93.5 -122.5v-3h145v-96h-268v71q57 36 95 110t38 184q-1 100 -50.5 172.5t-135.5 72.5t-139 -70.5t-53 -178.5q0 -103 38.5 -180.5t94.5 -109.5v-71
h-268v96h143z" />
    <glyph glyph-name="uni03BC" unicode="&#x3bc;" horiz-adv-x="606" 
d="M406 0v62q-79 -74 -164 -74q-18 0 -45 9t-40 24l-2 -2q2 -7 10 -45t10.5 -54t7 -48.5t5.5 -64.5l-121 -23v716h133v-303q0 -54 25 -85t75 -31q48 0 76.5 34.5t28.5 95.5v289h133v-500h-132z" />
    <glyph glyph-name="pi" unicode="&#x3c0;" horiz-adv-x="610" 
d="M586 423h-75v-273q0 -96 14 -150h-116q-18 30 -18 144v279h-150q-4 -97 -23 -225.5t-44 -197.5h-117q25 83 44.5 208.5t21.5 214.5q-68 0 -104 -11l-14 79q44 32 164 32h426z" />
    <glyph glyph-name="endash" unicode="&#x2013;" horiz-adv-x="500" 
d="M500 200h-500v76h500v-76z" />
    <glyph glyph-name="emdash" unicode="&#x2014;" horiz-adv-x="1000" 
d="M1000 200h-1000v76h1000v-76z" />
    <glyph glyph-name="quoteleft" unicode="&#x2018;" horiz-adv-x="278" 
d="M179 735l59 -22l-56 -169q-17 -53 -35.5 -76t-50.5 -23q-30 0 -37 32t21 85z" />
    <glyph glyph-name="quoteright" unicode="&#x2019;" horiz-adv-x="278" 
d="M100 445l-59 22l56 169q17 53 35.5 76t50.5 23q30 0 37 -32t-21 -85z" />
    <glyph glyph-name="quotesinglbase" unicode="&#x201a;" horiz-adv-x="278" 
d="M90 -172l-59 22l56 169q17 53 35.5 76t50.5 23q30 0 37 -32t-21 -85z" />
    <glyph glyph-name="quotedblleft" unicode="&#x201c;" horiz-adv-x="500" 
d="M191 735l59 -22l-56 -169q-17 -53 -35.5 -76t-50.5 -23q-30 0 -37 32t21 85zM406 735l59 -22l-56 -169q-17 -53 -35.5 -76t-50.5 -23q-30 0 -37 32t21 85z" />
    <glyph glyph-name="quotedblright" unicode="&#x201d;" horiz-adv-x="500" 
d="M94 445l-59 22l56 169q17 53 35.5 76t50.5 23q30 0 37 -32t-21 -85zM308 445l-59 22l56 169q17 53 35.5 76t50.5 23q30 0 37 -32t-21 -85z" />
    <glyph glyph-name="quotedblbase" unicode="&#x201e;" horiz-adv-x="500" 
d="M94 -172l-59 22l56 169q17 53 35.5 76t50.5 23q30 0 37 -32t-21 -85zM308 -172l-59 22l56 169q17 53 35.5 76t50.5 23q30 0 37 -32t-21 -85z" />
    <glyph glyph-name="dagger" unicode="&#x2020;" horiz-adv-x="556" 
d="M319 -149h-82l-42 436l50 171l-115 -32h-82v121h82l115 -32l-38 115v105h142v-105l-38 -115l115 32h82v-121h-82l-115 32l50 -171z" />
    <glyph glyph-name="daggerdbl" unicode="&#x2021;" horiz-adv-x="556" 
d="M207 735h142v-105l-38 -115l115 32h82v-121h-82l-115 32l50 -171l-50 -171l115 32h82v-121h-82l-115 32l38 -115v-105h-142v105l37 115l-115 -32h-81v121h81l115 -32l-50 171l50 171l-115 -32h-81v121h81l115 -32l-37 115v105z" />
    <glyph glyph-name="bullet" unicode="&#x2022;" horiz-adv-x="500" 
d="M425 350q0 -73 -51 -124t-124 -51t-124 51t-51 124q-1 73 50 124t125 51q73 0 124 -51t51 -124z" />
    <glyph glyph-name="ellipsis" unicode="&#x2026;" horiz-adv-x="1000" 
d="M92 63q0 31 22.5 53t53.5 22q29 0 51.5 -22.5t22.5 -52.5q0 -29 -22.5 -52t-50.5 -23q-32 0 -54.5 22t-22.5 53zM425 63q0 31 22.5 53t53.5 22q29 0 51.5 -22.5t22.5 -52.5q0 -29 -22.5 -52t-50.5 -23q-32 0 -54.5 22t-22.5 53zM758 63q0 31 22.5 53t53.5 22
q29 0 51.5 -22.5t22.5 -52.5q0 -29 -22.5 -52t-50.5 -23q-32 0 -54.5 22t-22.5 53z" />
    <glyph glyph-name="perthousand" unicode="&#x2030;" horiz-adv-x="1443" 
d="M231 341q39 0 61 40.5t22 119.5q0 71 -22.5 109.5t-60.5 38.5q-39 0 -61.5 -38.5t-22.5 -109.5q0 -79 22.5 -119.5t61.5 -40.5zM231 278q-85 0 -139 61.5t-54 162.5q0 51 19 97t64.5 79.5t109.5 33.5q93 0 142.5 -64t49.5 -145q0 -102 -53.5 -163.5t-138.5 -61.5zM769 51
q39 0 61 40.5t22 119.5q0 71 -22.5 109.5t-60.5 38.5q-39 0 -61.5 -38.5t-22.5 -109.5q0 -79 22.5 -119.5t61.5 -40.5zM769 -12q-85 0 -139 61.5t-54 162.5q0 51 19 97t64.5 79.5t109.5 33.5q93 0 142.5 -64t49.5 -145q0 -102 -53.5 -163.5t-138.5 -61.5zM1213 -12
q-85 0 -139 61.5t-54 162.5q0 51 19 97t64.5 79.5t109.5 33.5q93 0 142.5 -64t49.5 -145q0 -102 -53.5 -163.5t-138.5 -61.5zM1213 51q39 0 61 40.5t22 119.5q0 71 -22.5 109.5t-60.5 38.5q-39 0 -61.5 -38.5t-22.5 -109.5q0 -79 22.5 -119.5t61.5 -40.5zM328 0h-79l418 700
h78z" />
    <glyph glyph-name="guilsinglleft" unicode="&#x2039;" horiz-adv-x="278" 
d="M17 235l181 184l58 -28l-114 -152l128 -148l-56 -34z" />
    <glyph glyph-name="guilsinglright" unicode="&#x203a;" horiz-adv-x="278" 
d="M261 241l-181 -184l-58 28l114 152l-128 148l56 34z" />
    <glyph glyph-name="fraction" unicode="&#x2044;" horiz-adv-x="148" 
d="M-90 0h-89l418 700h88z" />
    <glyph glyph-name="Euro" unicode="&#x20ac;" 
d="M462 257h-209q15 -83 57.5 -129t111.5 -46q52 0 103 32l36 -81q-55 -45 -150 -45q-117 0 -197 74t-105 195h-92v68h84q-1 10 -1 29q0 20 1 30h-84v68h93q25 116 103 188t196 72q43 0 76.5 -11.5t76.5 -42.5l-39 -75q-55 35 -110 35q-63 0 -103.5 -44t-55.5 -122h208v-68
h-216q-1 -10 -1 -32q0 -18 1 -27h216v-68z" />
    <glyph glyph-name="afii61289" unicode="&#x2113;" horiz-adv-x="522" 
d="M452 180l50 -50q-73 -138 -210 -138q-84 0 -128.5 46.5t-53.5 120.5v11q-6 -4 -24.5 -19t-29.5 -23l-31 64q8 7 38.5 31t45.5 38v254q0 128 50 190.5t128 62.5q69 0 105 -49t36 -126q0 -86 -52.5 -171.5t-152.5 -179.5l1 -39q1 -56 27.5 -86t67.5 -30q76 0 133 93z
M223 520v-170q128 142 128 246q0 88 -59 88q-28 0 -48.5 -38.5t-20.5 -125.5z" />
    <glyph glyph-name="trademark" unicode="&#x2122;" horiz-adv-x="1000" 
d="M271 296h-99v343h-129v61h357v-61h-129v-343zM956 700v-404h-99v282h-2l-130 -282h-57l-126 282h-1v-282h-79v404h127l121 -267l125 267h121z" />
    <glyph glyph-name="Omega" unicode="&#x2126;" horiz-adv-x="731" 
d="M184 96v3q-55 48 -92 121.5t-37 163.5q0 137 88 231t225 94q94 0 165.5 -48t106.5 -120t35 -151q0 -93 -37.5 -168.5t-93.5 -122.5v-3h145v-96h-268v71q57 36 95 110t38 184q-1 100 -50.5 172.5t-135.5 72.5t-139 -70.5t-53 -178.5q0 -103 38.5 -180.5t94.5 -109.5v-71
h-268v96h143z" />
    <glyph glyph-name="estimated" unicode="&#x212e;" horiz-adv-x="873" 
d="M838 340h-651q-5 0 -5 -4v-197q0 -13 8 -23q104 -107 246 -107q155 0 260 120h57q-54 -65 -138 -102.5t-180 -37.5q-166 0 -283.5 105.5t-117.5 254.5q0 151 117.5 257t283.5 106q167 0 285 -106t118 -257v-9zM690 366v198q0 14 -9 23q-106 103 -245 103
q-141 0 -245 -106q-9 -9 -9 -25v-193q0 -7 5 -7h499q4 0 4 7z" />
    <glyph glyph-name="partialdiff" unicode="&#x2202;" horiz-adv-x="583" 
d="M105 642l-35 87q77 58 185 58q118 0 198 -100t80 -281q0 -186 -75.5 -300t-208.5 -114q-68 0 -117.5 37.5t-71 89.5t-21.5 109q0 116 63.5 188t156.5 72q57 0 98.5 -28t57.5 -57h1q1 9 1 36q0 105 -50 177.5t-127 72.5q-75 0 -135 -47zM260 90h1q57 0 95.5 64.5
t47.5 148.5q-9 31 -42.5 61t-78.5 30q-54 0 -90 -50t-36 -119q0 -57 28.5 -96t74.5 -39z" />
    <glyph glyph-name="Delta" unicode="&#x2206;" horiz-adv-x="672" 
d="M28 0v70l240 644h141l234 -642v-72h-615zM151 95h363l-120 313q-7 25 -30 90.5t-29 88.5h-4q-5 -20 -26.5 -83t-27.5 -81z" />
    <glyph glyph-name="product" unicode="&#x220f;" horiz-adv-x="734" 
d="M708 591h-107v-687h-117v687h-235v-687h-118v687h-106v106h683v-106z" />
    <glyph glyph-name="summation" unicode="&#x2211;" horiz-adv-x="571" 
d="M551 -96h-528v75l253 321l-243 315v82h501v-100h-340v-4l216 -274l-238 -303v-4h379v-108z" />
    <glyph glyph-name="minus" unicode="&#x2212;" 
d="M539 214h-504v78h504v-78z" />
    <glyph glyph-name="uni2215" unicode="&#x2215;" horiz-adv-x="148" 
d="M-90 0h-89l418 700h88z" />
    <glyph glyph-name="uni2219" unicode="&#x2219;" horiz-adv-x="287" 
d="M68 253q0 31 22.5 53t53.5 22q29 0 51.5 -22.5t22.5 -52.5q0 -29 -22.5 -52t-50.5 -23q-32 0 -54.5 22t-22.5 53z" />
    <glyph glyph-name="radical" unicode="&#x221a;" horiz-adv-x="602" 
d="M610 835l-230 -977h-97l-155 442l-75 -30l-21 66l167 68l112 -332q2 -9 9.5 -39t10.5 -43h1q2 10 16 87l178 758h84z" />
    <glyph glyph-name="infinity" unicode="&#x221e;" horiz-adv-x="788" 
d="M739 289v-1q0 -78 -48 -125t-114 -47q-46 0 -89.5 26.5t-92.5 89.5q-47 -57 -89.5 -86.5t-98.5 -29.5q-65 0 -111.5 47.5t-46.5 119.5q0 75 47 123t119 48q53 0 96.5 -29.5t87.5 -84.5q2 3 7 8q29 33 47.5 51t54.5 36.5t75 18.5q68 0 112 -46t44 -119zM215 181h2
q21 0 40 8t39.5 26t31 29t31.5 36q-32 41 -44.5 56.5t-42 34.5t-61.5 19q-43 0 -68.5 -30.5t-25.5 -77.5q0 -42 28 -71.5t70 -29.5zM577 390h-1q-18 0 -35 -6t-34.5 -21t-26.5 -23t-27.5 -29.5t-20.5 -23.5q50 -60 80.5 -83t67.5 -23q41 0 66 32t25 70q0 47 -26.5 77
t-67.5 30z" />
    <glyph glyph-name="integral" unicode="&#x222b;" horiz-adv-x="393" 
d="M373 848l-14 -80q-16 9 -36 9q-33 0 -52 -26q-29 -37 -29 -169q0 -79 7.5 -236.5t7.5 -247.5q0 -133 -38 -200q-37 -68 -125 -68q-48 0 -76 16l15 84q28 -11 45 -11q29 0 46 20q29 40 29 159q0 90 -7.5 251t-7.5 244q0 86 14 138t46 85q41 45 114 45q35 0 61 -13z" />
    <glyph glyph-name="approxequal" unicode="&#x2248;" horiz-adv-x="564" 
d="M480 449l43 -39q-54 -102 -137 -102q-29 0 -53 9t-63 31q-54 34 -89 34q-22 0 -41 -12t-29.5 -24.5t-27.5 -36.5l-43 40q23 45 62.5 73t84.5 28q12 0 23.5 -2t20 -4t20 -7.5t16 -8t16 -9t13.5 -7.5q5 -3 15 -8.5t14 -8t11.5 -6.5t12.5 -5.5t11.5 -4t12.5 -3t13 -0.5
q49 0 94 73zM480 264l43 -40q-55 -102 -138 -102q-28 0 -51.5 9t-63.5 32q-55 34 -89 34q-22 0 -41.5 -12t-29.5 -24.5t-27 -37.5l-43 40q23 46 62.5 74t84.5 28q12 0 23.5 -2t20 -4t20 -7.5t16 -8t16 -9t13.5 -7.5q5 -3 18 -10.5t18.5 -10.5t15.5 -7.5t19 -6t19 -1.5
q29 0 49.5 17.5t44.5 55.5z" />
    <glyph glyph-name="notequal" unicode="&#x2260;" horiz-adv-x="564" 
d="M412 513l-41 -91h144v-69h-171l-62 -139h233v-69h-260l-52 -117l-55 23l43 94h-142v69h169l61 139h-230v69h257l51 114z" />
    <glyph glyph-name="lessequal" unicode="&#x2264;" horiz-adv-x="564" 
d="M512 99l-457 225v75l457 225v-81l-387 -180v-2l387 -182v-80zM516 -10h-466v70h466v-70z" />
    <glyph glyph-name="greaterequal" unicode="&#x2265;" horiz-adv-x="564" 
d="M56 624l458 -226v-74l-458 -225v80l387 181v3l-387 180v81zM514 -10h-463v70h463v-70z" />
    <glyph glyph-name="lozenge" unicode="&#x25ca;" horiz-adv-x="602" 
d="M550 348l-205 -397h-94l-199 397l203 398h95zM444 345l-123 248q-13 34 -19 57h-3q-6 -27 -19 -57l-124 -242l125 -252q12 -33 17 -54h4q12 42 18 53z" />
    </font>
</defs>
</svg>
